ply
format ascii 1.0
element vertex 76
property float x
property float y
property float z
property uchar red
property uchar green
property uchar blue
element face 72
property list uchar int vertex_indices
end_header
0.000000 -0.019830 0.002603 0 200 200
-0.009411 -0.017613 -0.001099 0 200 200
-0.016300 -0.010677 -0.004506 0 200 200
-0.018822 -0.000880 -0.006705 0 200 200
-0.016300 0.009153 -0.007108 0 200 200
-0.009411 0.016733 -0.005607 0 200 200
-0.000000 0.019830 -0.002603 0 200 200
0.009411 0.017613 0.001099 0 200 200
0.016300 0.010677 0.004506 0 200 200
0.018822 0.000880 0.006705 0 200 200
0.016300 -0.009153 0.007108 0 200 200
0.009411 -0.016733 0.005607 0 200 200
0.541013 -0.215779 -1.490350 0 200 200
0.531602 -0.213562 -1.494052 0 200 200
0.524713 -0.206626 -1.497459 0 200 200
0.522191 -0.196829 -1.499658 0 200 200
0.524713 -0.186796 -1.500061 0 200 200
0.531602 -0.179216 -1.498560 0 200 200
0.541013 -0.176119 -1.495556 0 200 200
0.550424 -0.178336 -1.491854 0 200 200
0.557314 -0.185272 -1.488448 0 200 200
0.559835 -0.195069 -1.486248 0 200 200
0.557314 -0.205102 -1.485845 0 200 200
0.550424 -0.212682 -1.487346 0 200 200
0.000000 0.000000 0.000000 0 200 200
0.000000 0.019830 -0.002603 0 200 200
-0.009411 0.016733 -0.005607 0 200 200
-0.016300 0.009153 -0.007108 0 200 200
-0.018822 -0.000880 -0.006705 0 200 200
-0.016300 -0.010677 -0.004506 0 200 200
-0.009411 -0.017613 -0.001099 0 200 200
-0.000000 -0.019830 0.002603 0 200 200
0.009411 -0.016733 0.005607 0 200 200
0.016300 -0.009153 0.007108 0 200 200
0.018822 0.000880 0.006705 0 200 200
0.016300 0.010677 0.004506 0 200 200
0.009411 0.017613 0.001099 0 200 200
0.541013 -0.195949 -1.492953 0 200 200
0.541013 -0.215779 -1.490350 0 200 200
0.531602 -0.213562 -1.494052 0 200 200
0.524713 -0.206626 -1.497459 0 200 200
0.522191 -0.196829 -1.499658 0 200 200
0.524713 -0.186796 -1.500061 0 200 200
0.531602 -0.179216 -1.498560 0 200 200
0.541013 -0.176119 -1.495556 0 200 200
0.550424 -0.178336 -1.491854 0 200 200
0.557314 -0.185272 -1.488448 0 200 200
0.559835 -0.195069 -1.486248 0 200 200
0.557314 -0.205102 -1.485845 0 200 200
0.550424 -0.212682 -1.487346 0 200 200
0.676267 -0.244936 -1.866191 0 200 200
0.541013 -0.295098 -1.479940 0 200 200
0.493958 -0.284015 -1.498446 0 200 200
0.459512 -0.249334 -1.515481 0 200 200
0.446903 -0.200349 -1.526479 0 200 200
0.459512 -0.150185 -1.528494 0 200 200
0.493958 -0.112283 -1.520986 0 200 200
0.541013 -0.096799 -1.505966 0 200 200
0.588068 -0.107883 -1.487460 0 200 200
0.622515 -0.142563 -1.470425 0 200 200
0.635123 -0.191549 -1.459427 0 200 200
0.622515 -0.241713 -1.457412 0 200 200
0.588068 -0.279615 -1.464920 0 200 200
0.541013 -0.195949 -1.492953 0 200 200
0.541013 -0.096799 -1.505966 0 200 200
0.493958 -0.112283 -1.520986 0 200 200
0.459512 -0.150185 -1.528494 0 200 200
0.446903 -0.200349 -1.526479 0 200 200
0.459512 -0.249334 -1.515481 0 200 200
0.493958 -0.284015 -1.498446 0 200 200
0.541013 -0.295098 -1.479940 0 200 200
0.588068 -0.279615 -1.464920 0 200 200
0.622515 -0.241713 -1.457412 0 200 200
0.635123 -0.191549 -1.459427 0 200 200
0.622515 -0.142563 -1.470425 0 200 200
0.588068 -0.107883 -1.487460 0 200 200
3 0 1 12
3 1 13 12
3 1 2 13
3 2 14 13
3 2 3 14
3 3 15 14
3 3 4 15
3 4 16 15
3 4 5 16
3 5 17 16
3 5 6 17
3 6 18 17
3 6 7 18
3 7 19 18
3 7 8 19
3 8 20 19
3 8 9 20
3 9 21 20
3 9 10 21
3 10 22 21
3 10 11 22
3 11 23 22
3 11 0 23
3 0 12 23
3 24 25 26
3 24 26 27
3 24 27 28
3 24 28 29
3 24 29 30
3 24 30 31
3 24 31 32
3 24 32 33
3 24 33 34
3 24 34 35
3 24 35 36
3 24 36 25
3 37 38 39
3 37 39 40
3 37 40 41
3 37 41 42
3 37 42 43
3 37 43 44
3 37 44 45
3 37 45 46
3 37 46 47
3 37 47 48
3 37 48 49
3 37 49 38
3 50 51 52
3 50 52 53
3 50 53 54
3 50 54 55
3 50 55 56
3 50 56 57
3 50 57 58
3 50 58 59
3 50 59 60
3 50 60 61
3 50 61 62
3 50 62 51
3 63 64 65
3 63 65 66
3 63 66 67
3 63 67 68
3 63 68 69
3 63 69 70
3 63 70 71
3 63 71 72
3 63 72 73
3 63 73 74
3 63 74 75
3 63 75 64
