ply
format ascii 1.0
element vertex 76
property float x
property float y
property float z
property uchar red
property uchar green
property uchar blue
element face 72
property list uchar int vertex_indices
end_header
0.000000 -0.019910 0.001898 0 200 200
-0.009939 -0.017138 0.002741 0 200 200
-0.017215 -0.009774 0.002850 0 200 200
-0.019878 0.000209 0.002196 0 200 200
-0.017215 0.010136 0.000952 0 200 200
-0.009939 0.017347 -0.000546 0 200 200
-0.000000 0.019910 -0.001898 0 200 200
0.009939 0.017138 -0.002741 0 200 200
0.017215 0.009774 -0.002850 0 200 200
0.019878 -0.000209 -0.002196 0 200 200
0.017215 -0.010136 -0.000952 0 200 200
0.009939 -0.017347 0.000546 0 200 200
-0.176439 -0.170810 -1.581168 0 200 200
-0.186378 -0.168038 -1.580325 0 200 200
-0.193653 -0.160674 -1.580216 0 200 200
-0.196317 -0.150691 -1.580871 0 200 200
-0.193653 -0.140764 -1.582114 0 200 200
-0.186378 -0.133553 -1.583612 0 200 200
-0.176439 -0.130990 -1.584964 0 200 200
-0.166500 -0.133762 -1.585808 0 200 200
-0.159224 -0.141126 -1.585917 0 200 200
-0.156560 -0.151109 -1.585262 0 200 200
-0.159224 -0.161036 -1.584019 0 200 200
-0.166500 -0.168247 -1.582520 0 200 200
0.000000 0.000000 0.000000 0 200 200
0.000000 0.019910 -0.001898 0 200 200
-0.009939 0.017347 -0.000546 0 200 200
-0.017215 0.010136 0.000952 0 200 200
-0.019878 0.000209 0.002196 0 200 200
-0.017215 -0.009774 0.002850 0 200 200
-0.009939 -0.017138 0.002741 0 200 200
-0.000000 -0.019910 0.001898 0 200 200
0.009939 -0.017347 0.000546 0 200 200
0.017215 -0.010136 -0.000952 0 200 200
0.019878 -0.000209 -0.002196 0 200 200
0.017215 0.009774 -0.002850 0 200 200
0.009939 0.017138 -0.002741 0 200 200
-0.176439 -0.150900 -1.583066 0 200 200
-0.176439 -0.170810 -1.581168 0 200 200
-0.186378 -0.168038 -1.580325 0 200 200
-0.193653 -0.160674 -1.580216 0 200 200
-0.196317 -0.150691 -1.580871 0 200 200
-0.193653 -0.140764 -1.582114 0 200 200
-0.186378 -0.133553 -1.583612 0 200 200
-0.176439 -0.130990 -1.584964 0 200 200
-0.166500 -0.133762 -1.585808 0 200 200
-0.159224 -0.141126 -1.585917 0 200 200
-0.156560 -0.151109 -1.585262 0 200 200
-0.159224 -0.161036 -1.584019 0 200 200
-0.166500 -0.168247 -1.582520 0 200 200
-0.220548 -0.188625 -1.978833 0 200 200
-0.176439 -0.250449 -1.573577 0 200 200
-0.226134 -0.236589 -1.569360 0 200 200
-0.262513 -0.199768 -1.568815 0 200 200
-0.275829 -0.149854 -1.572089 0 200 200
-0.262513 -0.100219 -1.578304 0 200 200
-0.226134 -0.064165 -1.585795 0 200 200
-0.176439 -0.051351 -1.592555 0 200 200
-0.126743 -0.065211 -1.596773 0 200 200
-0.090364 -0.102032 -1.597318 0 200 200
-0.077048 -0.151946 -1.594044 0 200 200
-0.090364 -0.201581 -1.587829 0 200 200
-0.126743 -0.237635 -1.580337 0 200 200
-0.176439 -0.150900 -1.583066 0 200 200
-0.176439 -0.051351 -1.592555 0 200 200
-0.226134 -0.064165 -1.585795 0 200 200
-0.262513 -0.100219 -1.578304 0 200 200
-0.275829 -0.149854 -1.572089 0 200 200
-0.262513 -0.199768 -1.568815 0 200 200
-0.226134 -0.236589 -1.569360 0 200 200
-0.176439 -0.250449 -1.573577 0 200 200
-0.126743 -0.237635 -1.580337 0 200 200
-0.090364 -0.201581 -1.587829 0 200 200
-0.077048 -0.151946 -1.594044 0 200 200
-0.090364 -0.102032 -1.597318 0 200 200
-0.126743 -0.065211 -1.596773 0 200 200
3 0 1 12
3 1 13 12
3 1 2 13
3 2 14 13
3 2 3 14
3 3 15 14
3 3 4 15
3 4 16 15
3 4 5 16
3 5 17 16
3 5 6 17
3 6 18 17
3 6 7 18
3 7 19 18
3 7 8 19
3 8 20 19
3 8 9 20
3 9 21 20
3 9 10 21
3 10 22 21
3 10 11 22
3 11 23 22
3 11 0 23
3 0 12 23
3 24 25 26
3 24 26 27
3 24 27 28
3 24 28 29
3 24 29 30
3 24 30 31
3 24 31 32
3 24 32 33
3 24 33 34
3 24 34 35
3 24 35 36
3 24 36 25
3 37 38 39
3 37 39 40
3 37 40 41
3 37 41 42
3 37 42 43
3 37 43 44
3 37 44 45
3 37 45 46
3 37 46 47
3 37 47 48
3 37 48 49
3 37 49 38
3 50 51 52
3 50 52 53
3 50 53 54
3 50 54 55
3 50 55 56
3 50 56 57
3 50 57 58
3 50 58 59
3 50 59 60
3 50 60 61
3 50 61 62
3 50 62 51
3 63 64 65
3 63 65 66
3 63 66 67
3 63 67 68
3 63 68 69
3 63 69 70
3 63 70 71
3 63 71 72
3 63 72 73
3 63 73 74
3 63 74 75
3 63 75 64
