ply
format ascii 1.0
element vertex 76
property float x
property float y
property float z
property uchar red
property uchar green
property uchar blue
element face 72
property list uchar int vertex_indices
end_header
0.000000 -0.019822 0.002661 0 200 200
-0.009779 -0.017445 0.000232 0 200 200
-0.016938 -0.010393 -0.002259 0 200 200
-0.019558 -0.000556 -0.004144 0 200 200
-0.016938 0.009429 -0.004919 0 200 200
-0.009779 0.016888 -0.004376 0 200 200
-0.000000 0.019822 -0.002661 0 200 200
0.009779 0.017445 -0.000232 0 200 200
0.016938 0.010393 0.002259 0 200 200
0.019558 0.000556 0.004144 0 200 200
0.016938 -0.009429 0.004919 0 200 200
0.009779 -0.016888 0.004376 0 200 200
0.334500 -0.227960 -1.548078 0 200 200
0.324721 -0.225582 -1.550506 0 200 200
0.317562 -0.218530 -1.552997 0 200 200
0.314942 -0.208694 -1.554882 0 200 200
0.317562 -0.198708 -1.555657 0 200 200
0.324721 -0.191249 -1.555114 0 200 200
0.334500 -0.188315 -1.553399 0 200 200
0.344279 -0.190693 -1.550970 0 200 200
0.351438 -0.197745 -1.548479 0 200 200
0.354058 -0.207581 -1.546594 0 200 200
0.351438 -0.217567 -1.545819 0 200 200
0.344279 -0.225026 -1.546362 0 200 200
0.000000 0.000000 0.000000 0 200 200
0.000000 0.019822 -0.002661 0 200 200
-0.009779 0.016888 -0.004376 0 200 200
-0.016938 0.009429 -0.004919 0 200 200
-0.019558 -0.000556 -0.004144 0 200 200
-0.016938 -0.010393 -0.002259 0 200 200
-0.009779 -0.017445 0.000232 0 200 200
-0.000000 -0.019822 0.002661 0 200 200
0.009779 -0.016888 0.004376 0 200 200
0.016938 -0.009429 0.004919 0 200 200
0.019558 0.000556 0.004144 0 200 200
0.016938 0.010393 0.002259 0 200 200
0.009779 0.017445 -0.000232 0 200 200
0.334500 -0.208137 -1.550738 0 200 200
0.334500 -0.227960 -1.548078 0 200 200
0.324721 -0.225582 -1.550506 0 200 200
0.317562 -0.218530 -1.552997 0 200 200
0.314942 -0.208694 -1.554882 0 200 200
0.317562 -0.198708 -1.555657 0 200 200
0.324721 -0.191249 -1.555114 0 200 200
0.334500 -0.188315 -1.553399 0 200 200
0.344279 -0.190693 -1.550970 0 200 200
0.351438 -0.197745 -1.548479 0 200 200
0.354058 -0.207581 -1.546594 0 200 200
0.351438 -0.217567 -1.545819 0 200 200
0.344279 -0.225026 -1.546362 0 200 200
0.418125 -0.260172 -1.938423 0 200 200
0.334500 -0.307249 -1.537436 0 200 200
0.285605 -0.295361 -1.549578 0 200 200
0.249811 -0.260101 -1.562031 0 200 200
0.236710 -0.210918 -1.571459 0 200 200
0.249811 -0.160990 -1.575334 0 200 200
0.285605 -0.123695 -1.572619 0 200 200
0.334500 -0.109026 -1.564041 0 200 200
0.383395 -0.120914 -1.551898 0 200 200
0.419189 -0.156173 -1.539445 0 200 200
0.432290 -0.205356 -1.530018 0 200 200
0.419189 -0.255284 -1.526142 0 200 200
0.383395 -0.292580 -1.528858 0 200 200
0.334500 -0.208137 -1.550738 0 200 200
0.334500 -0.109026 -1.564041 0 200 200
0.285605 -0.123695 -1.572619 0 200 200
0.249811 -0.160990 -1.575334 0 200 200
0.236710 -0.210918 -1.571459 0 200 200
0.249811 -0.260101 -1.562031 0 200 200
0.285605 -0.295361 -1.549578 0 200 200
0.334500 -0.307249 -1.537436 0 200 200
0.383395 -0.292580 -1.528858 0 200 200
0.419189 -0.255284 -1.526142 0 200 200
0.432290 -0.205356 -1.530018 0 200 200
0.419189 -0.156173 -1.539445 0 200 200
0.383395 -0.120914 -1.551898 0 200 200
3 0 1 12
3 1 13 12
3 1 2 13
3 2 14 13
3 2 3 14
3 3 15 14
3 3 4 15
3 4 16 15
3 4 5 16
3 5 17 16
3 5 6 17
3 6 18 17
3 6 7 18
3 7 19 18
3 7 8 19
3 8 20 19
3 8 9 20
3 9 21 20
3 9 10 21
3 10 22 21
3 10 11 22
3 11 23 22
3 11 0 23
3 0 12 23
3 24 25 26
3 24 26 27
3 24 27 28
3 24 28 29
3 24 29 30
3 24 30 31
3 24 31 32
3 24 32 33
3 24 33 34
3 24 34 35
3 24 35 36
3 24 36 25
3 37 38 39
3 37 39 40
3 37 40 41
3 37 41 42
3 37 42 43
3 37 43 44
3 37 44 45
3 37 45 46
3 37 46 47
3 37 47 48
3 37 48 49
3 37 49 38
3 50 51 52
3 50 52 53
3 50 53 54
3 50 54 55
3 50 55 56
3 50 56 57
3 50 57 58
3 50 58 59
3 50 59 60
3 50 60 61
3 50 61 62
3 50 62 51
3 63 64 65
3 63 65 66
3 63 66 67
3 63 67 68
3 63 68 69
3 63 69 70
3 63 70 71
3 63 71 72
3 63 72 73
3 63 73 74
3 63 74 75
3 63 75 64
