ply
format ascii 1.0
element vertex 2000
property float x
property float y
property float z
property uchar red
property uchar green
property uchar blue
end_header
0.000000 0.000000 0.000000 255 0 0
0.005358 0.000000 0.000000 255 0 0
0.010716 0.000000 0.000000 255 0 0
0.016074 0.000000 0.000000 255 0 0
0.021433 0.000000 0.000000 255 0 0
0.026791 0.000000 0.000000 255 0 0
0.032149 0.000000 0.000000 255 0 0
0.037507 0.000000 0.000000 255 0 0
0.042865 0.000000 0.000000 255 0 0
0.048223 0.000000 0.000000 255 0 0
0.053582 0.000000 0.000000 255 0 0
0.058940 0.000000 0.000000 255 0 0
0.064298 0.000000 0.000000 255 0 0
0.069656 0.000000 0.000000 255 0 0
0.075014 0.000000 0.000000 255 0 0
0.080372 0.000000 0.000000 255 0 0
0.085731 0.000000 0.000000 255 0 0
0.091089 0.000000 0.000000 255 0 0
0.096447 0.000000 0.000000 255 0 0
0.101805 0.000000 0.000000 255 0 0
0.107163 0.000000 0.000000 255 0 0
0.112521 0.000000 0.000000 255 0 0
0.117879 0.000000 0.000000 255 0 0
0.123238 0.000000 0.000000 255 0 0
0.128596 0.000000 0.000000 255 0 0
0.133954 0.000000 0.000000 255 0 0
0.139312 0.000000 0.000000 255 0 0
0.144670 0.000000 0.000000 255 0 0
0.150028 0.000000 0.000000 255 0 0
0.155387 0.000000 0.000000 255 0 0
0.160745 0.000000 0.000000 255 0 0
0.166103 0.000000 0.000000 255 0 0
0.171461 0.000000 0.000000 255 0 0
0.176819 0.000000 0.000000 255 0 0
0.182177 0.000000 0.000000 255 0 0
0.187536 0.000000 0.000000 255 0 0
0.192894 0.000000 0.000000 255 0 0
0.198252 0.000000 0.000000 255 0 0
0.203610 0.000000 0.000000 255 0 0
0.208968 0.000000 0.000000 255 0 0
0.214326 0.000000 0.000000 255 0 0
0.219684 0.000000 0.000000 255 0 0
0.225043 0.000000 0.000000 255 0 0
0.230401 0.000000 0.000000 255 0 0
0.235759 0.000000 0.000000 255 0 0
0.241117 0.000000 0.000000 255 0 0
0.246475 0.000000 0.000000 255 0 0
0.251833 0.000000 0.000000 255 0 0
0.257192 0.000000 0.000000 255 0 0
0.262550 0.000000 0.000000 255 0 0
0.267908 0.000000 0.000000 255 0 0
0.273266 0.000000 0.000000 255 0 0
0.278624 0.000000 0.000000 255 0 0
0.283982 0.000000 0.000000 255 0 0
0.289341 0.000000 0.000000 255 0 0
0.294699 0.000000 0.000000 255 0 0
0.300057 0.000000 0.000000 255 0 0
0.305415 0.000000 0.000000 255 0 0
0.310773 0.000000 0.000000 255 0 0
0.316131 0.000000 0.000000 255 0 0
0.321489 0.000000 0.000000 255 0 0
0.326848 0.000000 0.000000 255 0 0
0.332206 0.000000 0.000000 255 0 0
0.337564 0.000000 0.000000 255 0 0
0.342922 0.000000 0.000000 255 0 0
0.348280 0.000000 0.000000 255 0 0
0.353638 0.000000 0.000000 255 0 0
0.358997 0.000000 0.000000 255 0 0
0.364355 0.000000 0.000000 255 0 0
0.369713 0.000000 0.000000 255 0 0
0.375071 0.000000 0.000000 255 0 0
0.380429 0.000000 0.000000 255 0 0
0.385787 0.000000 0.000000 255 0 0
0.391146 0.000000 0.000000 255 0 0
0.396504 0.000000 0.000000 255 0 0
0.401862 0.000000 0.000000 255 0 0
0.407220 0.000000 0.000000 255 0 0
0.412578 0.000000 0.000000 255 0 0
0.417936 0.000000 0.000000 255 0 0
0.423295 0.000000 0.000000 255 0 0
0.428653 0.000000 0.000000 255 0 0
0.434011 0.000000 0.000000 255 0 0
0.439369 0.000000 0.000000 255 0 0
0.444727 0.000000 0.000000 255 0 0
0.450085 0.000000 0.000000 255 0 0
0.455443 0.000000 0.000000 255 0 0
0.460802 0.000000 0.000000 255 0 0
0.466160 0.000000 0.000000 255 0 0
0.471518 0.000000 0.000000 255 0 0
0.476876 0.000000 0.000000 255 0 0
0.482234 0.000000 0.000000 255 0 0
0.487592 0.000000 0.000000 255 0 0
0.492951 0.000000 0.000000 255 0 0
0.498309 0.000000 0.000000 255 0 0
0.503667 0.000000 0.000000 255 0 0
0.509025 0.000000 0.000000 255 0 0
0.514383 0.000000 0.000000 255 0 0
0.519741 0.000000 0.000000 255 0 0
0.525100 0.000000 0.000000 255 0 0
0.530458 0.000000 0.000000 255 0 0
0.535816 0.000000 0.000000 255 0 0
0.541174 0.000000 0.000000 255 0 0
0.546532 0.000000 0.000000 255 0 0
0.551890 0.000000 0.000000 255 0 0
0.557248 0.000000 0.000000 255 0 0
0.562607 0.000000 0.000000 255 0 0
0.567965 0.000000 0.000000 255 0 0
0.573323 0.000000 0.000000 255 0 0
0.578681 0.000000 0.000000 255 0 0
0.584039 0.000000 0.000000 255 0 0
0.589397 0.000000 0.000000 255 0 0
0.594756 0.000000 0.000000 255 0 0
0.600114 0.000000 0.000000 255 0 0
0.605472 0.000000 0.000000 255 0 0
0.610830 0.000000 0.000000 255 0 0
0.616188 0.000000 0.000000 255 0 0
0.621546 0.000000 0.000000 255 0 0
0.626905 0.000000 0.000000 255 0 0
0.632263 0.000000 0.000000 255 0 0
0.637621 0.000000 0.000000 255 0 0
0.642979 0.000000 0.000000 255 0 0
0.648337 0.000000 0.000000 255 0 0
0.653695 0.000000 0.000000 255 0 0
0.659053 0.000000 0.000000 255 0 0
0.664412 0.000000 0.000000 255 0 0
0.669770 0.000000 0.000000 255 0 0
0.675128 0.000000 0.000000 255 0 0
0.680486 0.000000 0.000000 255 0 0
0.685844 0.000000 0.000000 255 0 0
0.691202 0.000000 0.000000 255 0 0
0.696561 0.000000 0.000000 255 0 0
0.701919 0.000000 0.000000 255 0 0
0.707277 0.000000 0.000000 255 0 0
0.712635 0.000000 0.000000 255 0 0
0.717993 0.000000 0.000000 255 0 0
0.723351 0.000000 0.000000 255 0 0
0.728710 0.000000 0.000000 255 0 0
0.734068 0.000000 0.000000 255 0 0
0.739426 0.000000 0.000000 255 0 0
0.744784 0.000000 0.000000 255 0 0
0.750142 0.000000 0.000000 255 0 0
0.755500 0.000000 0.000000 255 0 0
0.760858 0.000000 0.000000 255 0 0
0.766217 0.000000 0.000000 255 0 0
0.771575 0.000000 0.000000 255 0 0
0.776933 0.000000 0.000000 255 0 0
0.782291 0.000000 0.000000 255 0 0
0.787649 0.000000 0.000000 255 0 0
0.793007 0.000000 0.000000 255 0 0
0.798366 0.000000 0.000000 255 0 0
0.803724 0.000000 0.000000 255 0 0
0.809082 0.000000 0.000000 255 0 0
0.814440 0.000000 0.000000 255 0 0
0.819798 0.000000 0.000000 255 0 0
0.825156 0.000000 0.000000 255 0 0
0.830515 0.000000 0.000000 255 0 0
0.835873 0.000000 0.000000 255 0 0
0.841231 0.000000 0.000000 255 0 0
0.846589 0.000000 0.000000 255 0 0
0.851947 0.000000 0.000000 255 0 0
0.857305 0.000000 0.000000 255 0 0
0.862663 0.000000 0.000000 255 0 0
0.868022 0.000000 0.000000 255 0 0
0.873380 0.000000 0.000000 255 0 0
0.878738 0.000000 0.000000 255 0 0
0.884096 0.000000 0.000000 255 0 0
0.889454 0.000000 0.000000 255 0 0
0.894812 0.000000 0.000000 255 0 0
0.900171 0.000000 0.000000 255 0 0
0.905529 0.000000 0.000000 255 0 0
0.910887 0.000000 0.000000 255 0 0
0.916245 0.000000 0.000000 255 0 0
0.921603 0.000000 0.000000 255 0 0
0.926961 0.000000 0.000000 255 0 0
0.932320 0.000000 0.000000 255 0 0
0.937678 0.000000 0.000000 255 0 0
0.943036 0.000000 0.000000 255 0 0
0.948394 0.000000 0.000000 255 0 0
0.953752 0.000000 0.000000 255 0 0
0.959110 0.000000 0.000000 255 0 0
0.964468 0.000000 0.000000 255 0 0
0.969827 0.000000 0.000000 255 0 0
0.975185 0.000000 0.000000 255 0 0
0.980543 0.000000 0.000000 255 0 0
0.985901 0.000000 0.000000 255 0 0
0.991259 0.000000 0.000000 255 0 0
0.996617 0.000000 0.000000 255 0 0
1.001976 0.000000 0.000000 255 0 0
1.007334 0.000000 0.000000 255 0 0
1.012692 0.000000 0.000000 255 0 0
1.018050 0.000000 0.000000 255 0 0
1.023408 0.000000 0.000000 255 0 0
1.028766 0.000000 0.000000 255 0 0
1.034125 0.000000 0.000000 255 0 0
1.039483 0.000000 0.000000 255 0 0
1.044841 0.000000 0.000000 255 0 0
1.050199 0.000000 0.000000 255 0 0
1.055557 0.000000 0.000000 255 0 0
1.060915 0.000000 0.000000 255 0 0
1.066274 0.000000 0.000000 255 0 0
1.071632 0.000000 0.000000 255 0 0
1.076990 0.000000 0.000000 255 0 0
1.082348 0.000000 0.000000 255 0 0
1.087706 0.000000 0.000000 255 0 0
1.093064 0.000000 0.000000 255 0 0
1.098422 0.000000 0.000000 255 0 0
1.103781 0.000000 0.000000 255 0 0
1.109139 0.000000 0.000000 255 0 0
1.114497 0.000000 0.000000 255 0 0
1.119855 0.000000 0.000000 255 0 0
1.125213 0.000000 0.000000 255 0 0
1.130571 0.000000 0.000000 255 0 0
1.135930 0.000000 0.000000 255 0 0
1.141288 0.000000 0.000000 255 0 0
1.146646 0.000000 0.000000 255 0 0
1.152004 0.000000 0.000000 255 0 0
1.157362 0.000000 0.000000 255 0 0
1.162720 0.000000 0.000000 255 0 0
1.168079 0.000000 0.000000 255 0 0
1.173437 0.000000 0.000000 255 0 0
1.178795 0.000000 0.000000 255 0 0
1.184153 0.000000 0.000000 255 0 0
1.189511 0.000000 0.000000 255 0 0
1.194869 0.000000 0.000000 255 0 0
1.200227 0.000000 0.000000 255 0 0
1.205586 0.000000 0.000000 255 0 0
1.210944 0.000000 0.000000 255 0 0
1.216302 0.000000 0.000000 255 0 0
1.221660 0.000000 0.000000 255 0 0
1.227018 0.000000 0.000000 255 0 0
1.232376 0.000000 0.000000 255 0 0
1.237735 0.000000 0.000000 255 0 0
1.243093 0.000000 0.000000 255 0 0
1.248451 0.000000 0.000000 255 0 0
1.253809 0.000000 0.000000 255 0 0
1.259167 0.000000 0.000000 255 0 0
1.264525 0.000000 0.000000 255 0 0
1.269884 0.000000 0.000000 255 0 0
1.275242 0.000000 0.000000 255 0 0
1.280600 0.000000 0.000000 255 0 0
1.285958 0.000000 0.000000 255 0 0
1.291316 0.000000 0.000000 255 0 0
1.296674 0.000000 0.000000 255 0 0
1.302032 0.000000 0.000000 255 0 0
1.307391 0.000000 0.000000 255 0 0
1.312749 0.000000 0.000000 255 0 0
1.318107 0.000000 0.000000 255 0 0
1.323465 0.000000 0.000000 255 0 0
1.328823 0.000000 0.000000 255 0 0
1.334181 0.000000 0.000000 255 0 0
1.339540 0.000000 0.000000 255 0 0
1.344898 0.000000 0.000000 255 0 0
1.350256 0.000000 0.000000 255 0 0
1.355614 0.000000 0.000000 255 0 0
1.360972 0.000000 0.000000 255 0 0
1.366330 0.000000 0.000000 255 0 0
1.371689 0.000000 0.000000 255 0 0
1.377047 0.000000 0.000000 255 0 0
1.382405 0.000000 0.000000 255 0 0
1.387763 0.000000 0.000000 255 0 0
1.393121 0.000000 0.000000 255 0 0
1.398479 0.000000 0.000000 255 0 0
1.403837 0.000000 0.000000 255 0 0
1.409196 0.000000 0.000000 255 0 0
1.414554 0.000000 0.000000 255 0 0
1.419912 0.000000 0.000000 255 0 0
1.425270 0.000000 0.000000 255 0 0
1.430628 0.000000 0.000000 255 0 0
1.435986 0.000000 0.000000 255 0 0
1.441345 0.000000 0.000000 255 0 0
1.446703 0.000000 0.000000 255 0 0
1.452061 0.000000 0.000000 255 0 0
1.457419 0.000000 0.000000 255 0 0
1.462777 0.000000 0.000000 255 0 0
1.468135 0.000000 0.000000 255 0 0
1.473494 0.000000 0.000000 255 0 0
1.478852 0.000000 0.000000 255 0 0
1.484210 0.000000 0.000000 255 0 0
1.489568 0.000000 0.000000 255 0 0
1.494926 0.000000 0.000000 255 0 0
1.500284 0.000000 0.000000 255 0 0
1.505642 0.000000 0.000000 255 0 0
1.511001 0.000000 0.000000 255 0 0
1.516359 0.000000 0.000000 255 0 0
1.521717 0.000000 0.000000 255 0 0
1.527075 0.000000 0.000000 255 0 0
1.532433 0.000000 0.000000 255 0 0
1.537791 0.000000 0.000000 255 0 0
1.543150 0.000000 0.000000 255 0 0
1.548508 0.000000 0.000000 255 0 0
1.553866 0.000000 0.000000 255 0 0
1.559224 0.000000 0.000000 255 0 0
1.564582 0.000000 0.000000 255 0 0
1.569940 0.000000 0.000000 255 0 0
1.575299 0.000000 0.000000 255 0 0
1.580657 0.000000 0.000000 255 0 0
1.586015 0.000000 0.000000 255 0 0
1.591373 0.000000 0.000000 255 0 0
1.596731 0.000000 0.000000 255 0 0
1.602089 0.000000 0.000000 255 0 0
1.607447 0.000000 0.000000 255 0 0
1.612806 0.000000 0.000000 255 0 0
1.618164 0.000000 0.000000 255 0 0
1.623522 0.000000 0.000000 255 0 0
1.628880 0.000000 0.000000 255 0 0
1.634238 0.000000 0.000000 255 0 0
1.639596 0.000000 0.000000 255 0 0
1.644955 0.000000 0.000000 255 0 0
1.650313 0.000000 0.000000 255 0 0
1.655671 0.000000 0.000000 255 0 0
1.661029 0.000000 0.000000 255 0 0
1.666387 0.000000 0.000000 255 0 0
1.671745 0.000000 0.000000 255 0 0
1.677104 0.000000 0.000000 255 0 0
1.682462 0.000000 0.000000 255 0 0
1.687820 0.000000 0.000000 255 0 0
1.693178 0.000000 0.000000 255 0 0
1.698536 0.000000 0.000000 255 0 0
1.703894 0.000000 0.000000 255 0 0
1.709253 0.000000 0.000000 255 0 0
1.714611 0.000000 0.000000 255 0 0
1.719969 0.000000 0.000000 255 0 0
1.725327 0.000000 0.000000 255 0 0
1.730685 0.000000 0.000000 255 0 0
1.736043 0.000000 0.000000 255 0 0
1.741401 0.000000 0.000000 255 0 0
1.746760 0.000000 0.000000 255 0 0
1.752118 0.000000 0.000000 255 0 0
1.757476 0.000000 0.000000 255 0 0
1.762834 0.000000 0.000000 255 0 0
1.768192 0.000000 0.000000 255 0 0
1.773550 0.000000 0.000000 255 0 0
1.778909 0.000000 0.000000 255 0 0
1.784267 0.000000 0.000000 255 0 0
1.789625 0.000000 0.000000 255 0 0
1.794983 0.000000 0.000000 255 0 0
1.800341 0.000000 0.000000 255 0 0
1.805699 0.000000 0.000000 255 0 0
1.811058 0.000000 0.000000 255 0 0
1.816416 0.000000 0.000000 255 0 0
1.821774 0.000000 0.000000 255 0 0
1.827132 0.000000 0.000000 255 0 0
1.832490 0.000000 0.000000 255 0 0
1.837848 0.000000 0.000000 255 0 0
1.843206 0.000000 0.000000 255 0 0
1.848565 0.000000 0.000000 255 0 0
1.853923 0.000000 0.000000 255 0 0
1.859281 0.000000 0.000000 255 0 0
1.864639 0.000000 0.000000 255 0 0
1.869997 0.000000 0.000000 255 0 0
1.875355 0.000000 0.000000 255 0 0
1.880714 0.000000 0.000000 255 0 0
1.886072 0.000000 0.000000 255 0 0
1.891430 0.000000 0.000000 255 0 0
1.896788 0.000000 0.000000 255 0 0
1.902146 0.000000 0.000000 255 0 0
1.907504 0.000000 0.000000 255 0 0
1.912863 0.000000 0.000000 255 0 0
1.918221 0.000000 0.000000 255 0 0
1.923579 0.000000 0.000000 255 0 0
1.928937 0.000000 0.000000 255 0 0
1.934295 0.000000 0.000000 255 0 0
1.939653 0.000000 0.000000 255 0 0
1.945011 0.000000 0.000000 255 0 0
1.950370 0.000000 0.000000 255 0 0
1.955728 0.000000 0.000000 255 0 0
1.961086 0.000000 0.000000 255 0 0
1.966444 0.000000 0.000000 255 0 0
1.971802 0.000000 0.000000 255 0 0
1.977160 0.000000 0.000000 255 0 0
1.982519 0.000000 0.000000 255 0 0
1.987877 0.000000 0.000000 255 0 0
1.993235 0.000000 0.000000 255 0 0
1.998593 0.000000 0.000000 255 0 0
2.003951 0.000000 0.000000 255 0 0
2.009309 0.000000 0.000000 255 0 0
2.014668 0.000000 0.000000 255 0 0
2.020026 0.000000 0.000000 255 0 0
2.025384 0.000000 0.000000 255 0 0
2.030742 0.000000 0.000000 255 0 0
2.036100 0.000000 0.000000 255 0 0
2.041458 0.000000 0.000000 255 0 0
2.046816 0.000000 0.000000 255 0 0
2.052175 0.000000 0.000000 255 0 0
2.057533 0.000000 0.000000 255 0 0
2.062891 0.000000 0.000000 255 0 0
2.068249 0.000000 0.000000 255 0 0
2.073607 0.000000 0.000000 255 0 0
2.078965 0.000000 0.000000 255 0 0
2.084324 0.000000 0.000000 255 0 0
2.089682 0.000000 0.000000 255 0 0
2.095040 0.000000 0.000000 255 0 0
2.100398 0.000000 0.000000 255 0 0
2.105756 0.000000 0.000000 255 0 0
2.111114 0.000000 0.000000 255 0 0
2.116473 0.000000 0.000000 255 0 0
2.121831 0.000000 0.000000 255 0 0
2.127189 0.000000 0.000000 255 0 0
2.132547 0.000000 0.000000 255 0 0
2.137905 0.000000 0.000000 255 0 0
2.143263 0.000000 0.000000 255 0 0
2.148621 0.000000 0.000000 255 0 0
2.153980 0.000000 0.000000 255 0 0
2.159338 0.000000 0.000000 255 0 0
2.164696 0.000000 0.000000 255 0 0
2.170054 0.000000 0.000000 255 0 0
2.175412 0.000000 0.000000 255 0 0
2.180770 0.000000 0.000000 255 0 0
2.186129 0.000000 0.000000 255 0 0
2.191487 0.000000 0.000000 255 0 0
2.196845 0.000000 0.000000 255 0 0
2.202203 0.000000 0.000000 255 0 0
2.207561 0.000000 0.000000 255 0 0
2.212919 0.000000 0.000000 255 0 0
2.218278 0.000000 0.000000 255 0 0
2.223636 0.000000 0.000000 255 0 0
2.228994 0.000000 0.000000 255 0 0
2.234352 0.000000 0.000000 255 0 0
2.239710 0.000000 0.000000 255 0 0
2.245068 0.000000 0.000000 255 0 0
2.250426 0.000000 0.000000 255 0 0
2.255785 0.000000 0.000000 255 0 0
2.261143 0.000000 0.000000 255 0 0
2.266501 0.000000 0.000000 255 0 0
2.271859 0.000000 0.000000 255 0 0
2.277217 0.000000 0.000000 255 0 0
2.282575 0.000000 0.000000 255 0 0
2.287934 0.000000 0.000000 255 0 0
2.293292 0.000000 0.000000 255 0 0
2.298650 0.000000 0.000000 255 0 0
2.304008 0.000000 0.000000 255 0 0
2.309366 0.000000 0.000000 255 0 0
2.314724 0.000000 0.000000 255 0 0
2.320083 0.000000 0.000000 255 0 0
2.325441 0.000000 0.000000 255 0 0
2.330799 0.000000 0.000000 255 0 0
2.336157 0.000000 0.000000 255 0 0
2.341515 0.000000 0.000000 255 0 0
2.346873 0.000000 0.000000 255 0 0
2.352232 0.000000 0.000000 255 0 0
2.357590 0.000000 0.000000 255 0 0
2.362948 0.000000 0.000000 255 0 0
2.368306 0.000000 0.000000 255 0 0
2.373664 0.000000 0.000000 255 0 0
2.379022 0.000000 0.000000 255 0 0
2.384380 0.000000 0.000000 255 0 0
2.389739 0.000000 0.000000 255 0 0
2.395097 0.000000 0.000000 255 0 0
2.400455 0.000000 0.000000 255 0 0
2.405813 0.000000 0.000000 255 0 0
2.411171 0.000000 0.000000 255 0 0
2.416529 0.000000 0.000000 255 0 0
2.421888 0.000000 0.000000 255 0 0
2.427246 0.000000 0.000000 255 0 0
2.432604 0.000000 0.000000 255 0 0
2.437962 0.000000 0.000000 255 0 0
2.443320 0.000000 0.000000 255 0 0
2.448678 0.000000 0.000000 255 0 0
2.454037 0.000000 0.000000 255 0 0
2.459395 0.000000 0.000000 255 0 0
2.464753 0.000000 0.000000 255 0 0
2.470111 0.000000 0.000000 255 0 0
2.475469 0.000000 0.000000 255 0 0
2.480827 0.000000 0.000000 255 0 0
2.486185 0.000000 0.000000 255 0 0
2.491544 0.000000 0.000000 255 0 0
2.496902 0.000000 0.000000 255 0 0
2.502260 0.000000 0.000000 255 0 0
2.507618 0.000000 0.000000 255 0 0
2.512976 0.000000 0.000000 255 0 0
2.518334 0.000000 0.000000 255 0 0
2.523693 0.000000 0.000000 255 0 0
2.529051 0.000000 0.000000 255 0 0
2.534409 0.000000 0.000000 255 0 0
2.539767 0.000000 0.000000 255 0 0
2.545125 0.000000 0.000000 255 0 0
2.550483 0.000000 0.000000 255 0 0
2.555842 0.000000 0.000000 255 0 0
2.561200 0.000000 0.000000 255 0 0
2.566558 0.000000 0.000000 255 0 0
2.571916 0.000000 0.000000 255 0 0
2.577274 0.000000 0.000000 255 0 0
2.582632 0.000000 0.000000 255 0 0
2.587990 0.000000 0.000000 255 0 0
2.593349 0.000000 0.000000 255 0 0
2.598707 0.000000 0.000000 255 0 0
2.604065 0.000000 0.000000 255 0 0
2.609423 0.000000 0.000000 255 0 0
2.614781 0.000000 0.000000 255 0 0
2.620139 0.000000 0.000000 255 0 0
2.625498 0.000000 0.000000 255 0 0
2.630856 0.000000 0.000000 255 0 0
2.636214 0.000000 0.000000 255 0 0
2.641572 0.000000 0.000000 255 0 0
2.646930 0.000000 0.000000 255 0 0
2.652288 0.000000 0.000000 255 0 0
2.657647 0.000000 0.000000 255 0 0
2.663005 0.000000 0.000000 255 0 0
2.668363 0.000000 0.000000 255 0 0
2.673721 0.000000 0.000000 255 0 0
0.000000 0.000000 0.000000 0 255 0
0.000000 0.005358 0.000000 0 255 0
0.000000 0.010716 0.000000 0 255 0
0.000000 0.016074 0.000000 0 255 0
0.000000 0.021433 0.000000 0 255 0
0.000000 0.026791 0.000000 0 255 0
0.000000 0.032149 0.000000 0 255 0
0.000000 0.037507 0.000000 0 255 0
0.000000 0.042865 0.000000 0 255 0
0.000000 0.048223 0.000000 0 255 0
0.000000 0.053582 0.000000 0 255 0
0.000000 0.058940 0.000000 0 255 0
0.000000 0.064298 0.000000 0 255 0
0.000000 0.069656 0.000000 0 255 0
0.000000 0.075014 0.000000 0 255 0
0.000000 0.080372 0.000000 0 255 0
0.000000 0.085731 0.000000 0 255 0
0.000000 0.091089 0.000000 0 255 0
0.000000 0.096447 0.000000 0 255 0
0.000000 0.101805 0.000000 0 255 0
0.000000 0.107163 0.000000 0 255 0
0.000000 0.112521 0.000000 0 255 0
0.000000 0.117879 0.000000 0 255 0
0.000000 0.123238 0.000000 0 255 0
0.000000 0.128596 0.000000 0 255 0
0.000000 0.133954 0.000000 0 255 0
0.000000 0.139312 0.000000 0 255 0
0.000000 0.144670 0.000000 0 255 0
0.000000 0.150028 0.000000 0 255 0
0.000000 0.155387 0.000000 0 255 0
0.000000 0.160745 0.000000 0 255 0
0.000000 0.166103 0.000000 0 255 0
0.000000 0.171461 0.000000 0 255 0
0.000000 0.176819 0.000000 0 255 0
0.000000 0.182177 0.000000 0 255 0
0.000000 0.187536 0.000000 0 255 0
0.000000 0.192894 0.000000 0 255 0
0.000000 0.198252 0.000000 0 255 0
0.000000 0.203610 0.000000 0 255 0
0.000000 0.208968 0.000000 0 255 0
0.000000 0.214326 0.000000 0 255 0
0.000000 0.219684 0.000000 0 255 0
0.000000 0.225043 0.000000 0 255 0
0.000000 0.230401 0.000000 0 255 0
0.000000 0.235759 0.000000 0 255 0
0.000000 0.241117 0.000000 0 255 0
0.000000 0.246475 0.000000 0 255 0
0.000000 0.251833 0.000000 0 255 0
0.000000 0.257192 0.000000 0 255 0
0.000000 0.262550 0.000000 0 255 0
0.000000 0.267908 0.000000 0 255 0
0.000000 0.273266 0.000000 0 255 0
0.000000 0.278624 0.000000 0 255 0
0.000000 0.283982 0.000000 0 255 0
0.000000 0.289341 0.000000 0 255 0
0.000000 0.294699 0.000000 0 255 0
0.000000 0.300057 0.000000 0 255 0
0.000000 0.305415 0.000000 0 255 0
0.000000 0.310773 0.000000 0 255 0
0.000000 0.316131 0.000000 0 255 0
0.000000 0.321489 0.000000 0 255 0
0.000000 0.326848 0.000000 0 255 0
0.000000 0.332206 0.000000 0 255 0
0.000000 0.337564 0.000000 0 255 0
0.000000 0.342922 0.000000 0 255 0
0.000000 0.348280 0.000000 0 255 0
0.000000 0.353638 0.000000 0 255 0
0.000000 0.358997 0.000000 0 255 0
0.000000 0.364355 0.000000 0 255 0
0.000000 0.369713 0.000000 0 255 0
0.000000 0.375071 0.000000 0 255 0
0.000000 0.380429 0.000000 0 255 0
0.000000 0.385787 0.000000 0 255 0
0.000000 0.391146 0.000000 0 255 0
0.000000 0.396504 0.000000 0 255 0
0.000000 0.401862 0.000000 0 255 0
0.000000 0.407220 0.000000 0 255 0
0.000000 0.412578 0.000000 0 255 0
0.000000 0.417936 0.000000 0 255 0
0.000000 0.423295 0.000000 0 255 0
0.000000 0.428653 0.000000 0 255 0
0.000000 0.434011 0.000000 0 255 0
0.000000 0.439369 0.000000 0 255 0
0.000000 0.444727 0.000000 0 255 0
0.000000 0.450085 0.000000 0 255 0
0.000000 0.455443 0.000000 0 255 0
0.000000 0.460802 0.000000 0 255 0
0.000000 0.466160 0.000000 0 255 0
0.000000 0.471518 0.000000 0 255 0
0.000000 0.476876 0.000000 0 255 0
0.000000 0.482234 0.000000 0 255 0
0.000000 0.487592 0.000000 0 255 0
0.000000 0.492951 0.000000 0 255 0
0.000000 0.498309 0.000000 0 255 0
0.000000 0.503667 0.000000 0 255 0
0.000000 0.509025 0.000000 0 255 0
0.000000 0.514383 0.000000 0 255 0
0.000000 0.519741 0.000000 0 255 0
0.000000 0.525100 0.000000 0 255 0
0.000000 0.530458 0.000000 0 255 0
0.000000 0.535816 0.000000 0 255 0
0.000000 0.541174 0.000000 0 255 0
0.000000 0.546532 0.000000 0 255 0
0.000000 0.551890 0.000000 0 255 0
0.000000 0.557248 0.000000 0 255 0
0.000000 0.562607 0.000000 0 255 0
0.000000 0.567965 0.000000 0 255 0
0.000000 0.573323 0.000000 0 255 0
0.000000 0.578681 0.000000 0 255 0
0.000000 0.584039 0.000000 0 255 0
0.000000 0.589397 0.000000 0 255 0
0.000000 0.594756 0.000000 0 255 0
0.000000 0.600114 0.000000 0 255 0
0.000000 0.605472 0.000000 0 255 0
0.000000 0.610830 0.000000 0 255 0
0.000000 0.616188 0.000000 0 255 0
0.000000 0.621546 0.000000 0 255 0
0.000000 0.626905 0.000000 0 255 0
0.000000 0.632263 0.000000 0 255 0
0.000000 0.637621 0.000000 0 255 0
0.000000 0.642979 0.000000 0 255 0
0.000000 0.648337 0.000000 0 255 0
0.000000 0.653695 0.000000 0 255 0
0.000000 0.659053 0.000000 0 255 0
0.000000 0.664412 0.000000 0 255 0
0.000000 0.669770 0.000000 0 255 0
0.000000 0.675128 0.000000 0 255 0
0.000000 0.680486 0.000000 0 255 0
0.000000 0.685844 0.000000 0 255 0
0.000000 0.691202 0.000000 0 255 0
0.000000 0.696561 0.000000 0 255 0
0.000000 0.701919 0.000000 0 255 0
0.000000 0.707277 0.000000 0 255 0
0.000000 0.712635 0.000000 0 255 0
0.000000 0.717993 0.000000 0 255 0
0.000000 0.723351 0.000000 0 255 0
0.000000 0.728710 0.000000 0 255 0
0.000000 0.734068 0.000000 0 255 0
0.000000 0.739426 0.000000 0 255 0
0.000000 0.744784 0.000000 0 255 0
0.000000 0.750142 0.000000 0 255 0
0.000000 0.755500 0.000000 0 255 0
0.000000 0.760858 0.000000 0 255 0
0.000000 0.766217 0.000000 0 255 0
0.000000 0.771575 0.000000 0 255 0
0.000000 0.776933 0.000000 0 255 0
0.000000 0.782291 0.000000 0 255 0
0.000000 0.787649 0.000000 0 255 0
0.000000 0.793007 0.000000 0 255 0
0.000000 0.798366 0.000000 0 255 0
0.000000 0.803724 0.000000 0 255 0
0.000000 0.809082 0.000000 0 255 0
0.000000 0.814440 0.000000 0 255 0
0.000000 0.819798 0.000000 0 255 0
0.000000 0.825156 0.000000 0 255 0
0.000000 0.830515 0.000000 0 255 0
0.000000 0.835873 0.000000 0 255 0
0.000000 0.841231 0.000000 0 255 0
0.000000 0.846589 0.000000 0 255 0
0.000000 0.851947 0.000000 0 255 0
0.000000 0.857305 0.000000 0 255 0
0.000000 0.862663 0.000000 0 255 0
0.000000 0.868022 0.000000 0 255 0
0.000000 0.873380 0.000000 0 255 0
0.000000 0.878738 0.000000 0 255 0
0.000000 0.884096 0.000000 0 255 0
0.000000 0.889454 0.000000 0 255 0
0.000000 0.894812 0.000000 0 255 0
0.000000 0.900171 0.000000 0 255 0
0.000000 0.905529 0.000000 0 255 0
0.000000 0.910887 0.000000 0 255 0
0.000000 0.916245 0.000000 0 255 0
0.000000 0.921603 0.000000 0 255 0
0.000000 0.926961 0.000000 0 255 0
0.000000 0.932320 0.000000 0 255 0
0.000000 0.937678 0.000000 0 255 0
0.000000 0.943036 0.000000 0 255 0
0.000000 0.948394 0.000000 0 255 0
0.000000 0.953752 0.000000 0 255 0
0.000000 0.959110 0.000000 0 255 0
0.000000 0.964468 0.000000 0 255 0
0.000000 0.969827 0.000000 0 255 0
0.000000 0.975185 0.000000 0 255 0
0.000000 0.980543 0.000000 0 255 0
0.000000 0.985901 0.000000 0 255 0
0.000000 0.991259 0.000000 0 255 0
0.000000 0.996617 0.000000 0 255 0
0.000000 1.001976 0.000000 0 255 0
0.000000 1.007334 0.000000 0 255 0
0.000000 1.012692 0.000000 0 255 0
0.000000 1.018050 0.000000 0 255 0
0.000000 1.023408 0.000000 0 255 0
0.000000 1.028766 0.000000 0 255 0
0.000000 1.034125 0.000000 0 255 0
0.000000 1.039483 0.000000 0 255 0
0.000000 1.044841 0.000000 0 255 0
0.000000 1.050199 0.000000 0 255 0
0.000000 1.055557 0.000000 0 255 0
0.000000 1.060915 0.000000 0 255 0
0.000000 1.066274 0.000000 0 255 0
0.000000 1.071632 0.000000 0 255 0
0.000000 1.076990 0.000000 0 255 0
0.000000 1.082348 0.000000 0 255 0
0.000000 1.087706 0.000000 0 255 0
0.000000 1.093064 0.000000 0 255 0
0.000000 1.098422 0.000000 0 255 0
0.000000 1.103781 0.000000 0 255 0
0.000000 1.109139 0.000000 0 255 0
0.000000 1.114497 0.000000 0 255 0
0.000000 1.119855 0.000000 0 255 0
0.000000 1.125213 0.000000 0 255 0
0.000000 1.130571 0.000000 0 255 0
0.000000 1.135930 0.000000 0 255 0
0.000000 1.141288 0.000000 0 255 0
0.000000 1.146646 0.000000 0 255 0
0.000000 1.152004 0.000000 0 255 0
0.000000 1.157362 0.000000 0 255 0
0.000000 1.162720 0.000000 0 255 0
0.000000 1.168079 0.000000 0 255 0
0.000000 1.173437 0.000000 0 255 0
0.000000 1.178795 0.000000 0 255 0
0.000000 1.184153 0.000000 0 255 0
0.000000 1.189511 0.000000 0 255 0
0.000000 1.194869 0.000000 0 255 0
0.000000 1.200227 0.000000 0 255 0
0.000000 1.205586 0.000000 0 255 0
0.000000 1.210944 0.000000 0 255 0
0.000000 1.216302 0.000000 0 255 0
0.000000 1.221660 0.000000 0 255 0
0.000000 1.227018 0.000000 0 255 0
0.000000 1.232376 0.000000 0 255 0
0.000000 1.237735 0.000000 0 255 0
0.000000 1.243093 0.000000 0 255 0
0.000000 1.248451 0.000000 0 255 0
0.000000 1.253809 0.000000 0 255 0
0.000000 1.259167 0.000000 0 255 0
0.000000 1.264525 0.000000 0 255 0
0.000000 1.269884 0.000000 0 255 0
0.000000 1.275242 0.000000 0 255 0
0.000000 1.280600 0.000000 0 255 0
0.000000 1.285958 0.000000 0 255 0
0.000000 1.291316 0.000000 0 255 0
0.000000 1.296674 0.000000 0 255 0
0.000000 1.302032 0.000000 0 255 0
0.000000 1.307391 0.000000 0 255 0
0.000000 1.312749 0.000000 0 255 0
0.000000 1.318107 0.000000 0 255 0
0.000000 1.323465 0.000000 0 255 0
0.000000 1.328823 0.000000 0 255 0
0.000000 1.334181 0.000000 0 255 0
0.000000 1.339540 0.000000 0 255 0
0.000000 1.344898 0.000000 0 255 0
0.000000 1.350256 0.000000 0 255 0
0.000000 1.355614 0.000000 0 255 0
0.000000 1.360972 0.000000 0 255 0
0.000000 1.366330 0.000000 0 255 0
0.000000 1.371689 0.000000 0 255 0
0.000000 1.377047 0.000000 0 255 0
0.000000 1.382405 0.000000 0 255 0
0.000000 1.387763 0.000000 0 255 0
0.000000 1.393121 0.000000 0 255 0
0.000000 1.398479 0.000000 0 255 0
0.000000 1.403837 0.000000 0 255 0
0.000000 1.409196 0.000000 0 255 0
0.000000 1.414554 0.000000 0 255 0
0.000000 1.419912 0.000000 0 255 0
0.000000 1.425270 0.000000 0 255 0
0.000000 1.430628 0.000000 0 255 0
0.000000 1.435986 0.000000 0 255 0
0.000000 1.441345 0.000000 0 255 0
0.000000 1.446703 0.000000 0 255 0
0.000000 1.452061 0.000000 0 255 0
0.000000 1.457419 0.000000 0 255 0
0.000000 1.462777 0.000000 0 255 0
0.000000 1.468135 0.000000 0 255 0
0.000000 1.473494 0.000000 0 255 0
0.000000 1.478852 0.000000 0 255 0
0.000000 1.484210 0.000000 0 255 0
0.000000 1.489568 0.000000 0 255 0
0.000000 1.494926 0.000000 0 255 0
0.000000 1.500284 0.000000 0 255 0
0.000000 1.505642 0.000000 0 255 0
0.000000 1.511001 0.000000 0 255 0
0.000000 1.516359 0.000000 0 255 0
0.000000 1.521717 0.000000 0 255 0
0.000000 1.527075 0.000000 0 255 0
0.000000 1.532433 0.000000 0 255 0
0.000000 1.537791 0.000000 0 255 0
0.000000 1.543150 0.000000 0 255 0
0.000000 1.548508 0.000000 0 255 0
0.000000 1.553866 0.000000 0 255 0
0.000000 1.559224 0.000000 0 255 0
0.000000 1.564582 0.000000 0 255 0
0.000000 1.569940 0.000000 0 255 0
0.000000 1.575299 0.000000 0 255 0
0.000000 1.580657 0.000000 0 255 0
0.000000 1.586015 0.000000 0 255 0
0.000000 1.591373 0.000000 0 255 0
0.000000 1.596731 0.000000 0 255 0
0.000000 1.602089 0.000000 0 255 0
0.000000 1.607447 0.000000 0 255 0
0.000000 1.612806 0.000000 0 255 0
0.000000 1.618164 0.000000 0 255 0
0.000000 1.623522 0.000000 0 255 0
0.000000 1.628880 0.000000 0 255 0
0.000000 1.634238 0.000000 0 255 0
0.000000 1.639596 0.000000 0 255 0
0.000000 1.644955 0.000000 0 255 0
0.000000 1.650313 0.000000 0 255 0
0.000000 1.655671 0.000000 0 255 0
0.000000 1.661029 0.000000 0 255 0
0.000000 1.666387 0.000000 0 255 0
0.000000 1.671745 0.000000 0 255 0
0.000000 1.677104 0.000000 0 255 0
0.000000 1.682462 0.000000 0 255 0
0.000000 1.687820 0.000000 0 255 0
0.000000 1.693178 0.000000 0 255 0
0.000000 1.698536 0.000000 0 255 0
0.000000 1.703894 0.000000 0 255 0
0.000000 1.709253 0.000000 0 255 0
0.000000 1.714611 0.000000 0 255 0
0.000000 1.719969 0.000000 0 255 0
0.000000 1.725327 0.000000 0 255 0
0.000000 1.730685 0.000000 0 255 0
0.000000 1.736043 0.000000 0 255 0
0.000000 1.741401 0.000000 0 255 0
0.000000 1.746760 0.000000 0 255 0
0.000000 1.752118 0.000000 0 255 0
0.000000 1.757476 0.000000 0 255 0
0.000000 1.762834 0.000000 0 255 0
0.000000 1.768192 0.000000 0 255 0
0.000000 1.773550 0.000000 0 255 0
0.000000 1.778909 0.000000 0 255 0
0.000000 1.784267 0.000000 0 255 0
0.000000 1.789625 0.000000 0 255 0
0.000000 1.794983 0.000000 0 255 0
0.000000 1.800341 0.000000 0 255 0
0.000000 1.805699 0.000000 0 255 0
0.000000 1.811058 0.000000 0 255 0
0.000000 1.816416 0.000000 0 255 0
0.000000 1.821774 0.000000 0 255 0
0.000000 1.827132 0.000000 0 255 0
0.000000 1.832490 0.000000 0 255 0
0.000000 1.837848 0.000000 0 255 0
0.000000 1.843206 0.000000 0 255 0
0.000000 1.848565 0.000000 0 255 0
0.000000 1.853923 0.000000 0 255 0
0.000000 1.859281 0.000000 0 255 0
0.000000 1.864639 0.000000 0 255 0
0.000000 1.869997 0.000000 0 255 0
0.000000 1.875355 0.000000 0 255 0
0.000000 1.880714 0.000000 0 255 0
0.000000 1.886072 0.000000 0 255 0
0.000000 1.891430 0.000000 0 255 0
0.000000 1.896788 0.000000 0 255 0
0.000000 1.902146 0.000000 0 255 0
0.000000 1.907504 0.000000 0 255 0
0.000000 1.912863 0.000000 0 255 0
0.000000 1.918221 0.000000 0 255 0
0.000000 1.923579 0.000000 0 255 0
0.000000 1.928937 0.000000 0 255 0
0.000000 1.934295 0.000000 0 255 0
0.000000 1.939653 0.000000 0 255 0
0.000000 1.945011 0.000000 0 255 0
0.000000 1.950370 0.000000 0 255 0
0.000000 1.955728 0.000000 0 255 0
0.000000 1.961086 0.000000 0 255 0
0.000000 1.966444 0.000000 0 255 0
0.000000 1.971802 0.000000 0 255 0
0.000000 1.977160 0.000000 0 255 0
0.000000 1.982519 0.000000 0 255 0
0.000000 1.987877 0.000000 0 255 0
0.000000 1.993235 0.000000 0 255 0
0.000000 1.998593 0.000000 0 255 0
0.000000 2.003951 0.000000 0 255 0
0.000000 2.009309 0.000000 0 255 0
0.000000 2.014668 0.000000 0 255 0
0.000000 2.020026 0.000000 0 255 0
0.000000 2.025384 0.000000 0 255 0
0.000000 2.030742 0.000000 0 255 0
0.000000 2.036100 0.000000 0 255 0
0.000000 2.041458 0.000000 0 255 0
0.000000 2.046816 0.000000 0 255 0
0.000000 2.052175 0.000000 0 255 0
0.000000 2.057533 0.000000 0 255 0
0.000000 2.062891 0.000000 0 255 0
0.000000 2.068249 0.000000 0 255 0
0.000000 2.073607 0.000000 0 255 0
0.000000 2.078965 0.000000 0 255 0
0.000000 2.084324 0.000000 0 255 0
0.000000 2.089682 0.000000 0 255 0
0.000000 2.095040 0.000000 0 255 0
0.000000 2.100398 0.000000 0 255 0
0.000000 2.105756 0.000000 0 255 0
0.000000 2.111114 0.000000 0 255 0
0.000000 2.116473 0.000000 0 255 0
0.000000 2.121831 0.000000 0 255 0
0.000000 2.127189 0.000000 0 255 0
0.000000 2.132547 0.000000 0 255 0
0.000000 2.137905 0.000000 0 255 0
0.000000 2.143263 0.000000 0 255 0
0.000000 2.148621 0.000000 0 255 0
0.000000 2.153980 0.000000 0 255 0
0.000000 2.159338 0.000000 0 255 0
0.000000 2.164696 0.000000 0 255 0
0.000000 2.170054 0.000000 0 255 0
0.000000 2.175412 0.000000 0 255 0
0.000000 2.180770 0.000000 0 255 0
0.000000 2.186129 0.000000 0 255 0
0.000000 2.191487 0.000000 0 255 0
0.000000 2.196845 0.000000 0 255 0
0.000000 2.202203 0.000000 0 255 0
0.000000 2.207561 0.000000 0 255 0
0.000000 2.212919 0.000000 0 255 0
0.000000 2.218278 0.000000 0 255 0
0.000000 2.223636 0.000000 0 255 0
0.000000 2.228994 0.000000 0 255 0
0.000000 2.234352 0.000000 0 255 0
0.000000 2.239710 0.000000 0 255 0
0.000000 2.245068 0.000000 0 255 0
0.000000 2.250426 0.000000 0 255 0
0.000000 2.255785 0.000000 0 255 0
0.000000 2.261143 0.000000 0 255 0
0.000000 2.266501 0.000000 0 255 0
0.000000 2.271859 0.000000 0 255 0
0.000000 2.277217 0.000000 0 255 0
0.000000 2.282575 0.000000 0 255 0
0.000000 2.287934 0.000000 0 255 0
0.000000 2.293292 0.000000 0 255 0
0.000000 2.298650 0.000000 0 255 0
0.000000 2.304008 0.000000 0 255 0
0.000000 2.309366 0.000000 0 255 0
0.000000 2.314724 0.000000 0 255 0
0.000000 2.320083 0.000000 0 255 0
0.000000 2.325441 0.000000 0 255 0
0.000000 2.330799 0.000000 0 255 0
0.000000 2.336157 0.000000 0 255 0
0.000000 2.341515 0.000000 0 255 0
0.000000 2.346873 0.000000 0 255 0
0.000000 2.352232 0.000000 0 255 0
0.000000 2.357590 0.000000 0 255 0
0.000000 2.362948 0.000000 0 255 0
0.000000 2.368306 0.000000 0 255 0
0.000000 2.373664 0.000000 0 255 0
0.000000 2.379022 0.000000 0 255 0
0.000000 2.384380 0.000000 0 255 0
0.000000 2.389739 0.000000 0 255 0
0.000000 2.395097 0.000000 0 255 0
0.000000 2.400455 0.000000 0 255 0
0.000000 2.405813 0.000000 0 255 0
0.000000 2.411171 0.000000 0 255 0
0.000000 2.416529 0.000000 0 255 0
0.000000 2.421888 0.000000 0 255 0
0.000000 2.427246 0.000000 0 255 0
0.000000 2.432604 0.000000 0 255 0
0.000000 2.437962 0.000000 0 255 0
0.000000 2.443320 0.000000 0 255 0
0.000000 2.448678 0.000000 0 255 0
0.000000 2.454037 0.000000 0 255 0
0.000000 2.459395 0.000000 0 255 0
0.000000 2.464753 0.000000 0 255 0
0.000000 2.470111 0.000000 0 255 0
0.000000 2.475469 0.000000 0 255 0
0.000000 2.480827 0.000000 0 255 0
0.000000 2.486185 0.000000 0 255 0
0.000000 2.491544 0.000000 0 255 0
0.000000 2.496902 0.000000 0 255 0
0.000000 2.502260 0.000000 0 255 0
0.000000 2.507618 0.000000 0 255 0
0.000000 2.512976 0.000000 0 255 0
0.000000 2.518334 0.000000 0 255 0
0.000000 2.523693 0.000000 0 255 0
0.000000 2.529051 0.000000 0 255 0
0.000000 2.534409 0.000000 0 255 0
0.000000 2.539767 0.000000 0 255 0
0.000000 2.545125 0.000000 0 255 0
0.000000 2.550483 0.000000 0 255 0
0.000000 2.555842 0.000000 0 255 0
0.000000 2.561200 0.000000 0 255 0
0.000000 2.566558 0.000000 0 255 0
0.000000 2.571916 0.000000 0 255 0
0.000000 2.577274 0.000000 0 255 0
0.000000 2.582632 0.000000 0 255 0
0.000000 2.587990 0.000000 0 255 0
0.000000 2.593349 0.000000 0 255 0
0.000000 2.598707 0.000000 0 255 0
0.000000 2.604065 0.000000 0 255 0
0.000000 2.609423 0.000000 0 255 0
0.000000 2.614781 0.000000 0 255 0
0.000000 2.620139 0.000000 0 255 0
0.000000 2.625498 0.000000 0 255 0
0.000000 2.630856 0.000000 0 255 0
0.000000 2.636214 0.000000 0 255 0
0.000000 2.641572 0.000000 0 255 0
0.000000 2.646930 0.000000 0 255 0
0.000000 2.652288 0.000000 0 255 0
0.000000 2.657647 0.000000 0 255 0
0.000000 2.663005 0.000000 0 255 0
0.000000 2.668363 0.000000 0 255 0
0.000000 2.673721 0.000000 0 255 0
0.000000 0.000000 0.000000 0 0 255
0.000000 0.000000 0.005358 0 0 255
0.000000 0.000000 0.010716 0 0 255
0.000000 0.000000 0.016074 0 0 255
0.000000 0.000000 0.021433 0 0 255
0.000000 0.000000 0.026791 0 0 255
0.000000 0.000000 0.032149 0 0 255
0.000000 0.000000 0.037507 0 0 255
0.000000 0.000000 0.042865 0 0 255
0.000000 0.000000 0.048223 0 0 255
0.000000 0.000000 0.053582 0 0 255
0.000000 0.000000 0.058940 0 0 255
0.000000 0.000000 0.064298 0 0 255
0.000000 0.000000 0.069656 0 0 255
0.000000 0.000000 0.075014 0 0 255
0.000000 0.000000 0.080372 0 0 255
0.000000 0.000000 0.085731 0 0 255
0.000000 0.000000 0.091089 0 0 255
0.000000 0.000000 0.096447 0 0 255
0.000000 0.000000 0.101805 0 0 255
0.000000 0.000000 0.107163 0 0 255
0.000000 0.000000 0.112521 0 0 255
0.000000 0.000000 0.117879 0 0 255
0.000000 0.000000 0.123238 0 0 255
0.000000 0.000000 0.128596 0 0 255
0.000000 0.000000 0.133954 0 0 255
0.000000 0.000000 0.139312 0 0 255
0.000000 0.000000 0.144670 0 0 255
0.000000 0.000000 0.150028 0 0 255
0.000000 0.000000 0.155387 0 0 255
0.000000 0.000000 0.160745 0 0 255
0.000000 0.000000 0.166103 0 0 255
0.000000 0.000000 0.171461 0 0 255
0.000000 0.000000 0.176819 0 0 255
0.000000 0.000000 0.182177 0 0 255
0.000000 0.000000 0.187536 0 0 255
0.000000 0.000000 0.192894 0 0 255
0.000000 0.000000 0.198252 0 0 255
0.000000 0.000000 0.203610 0 0 255
0.000000 0.000000 0.208968 0 0 255
0.000000 0.000000 0.214326 0 0 255
0.000000 0.000000 0.219684 0 0 255
0.000000 0.000000 0.225043 0 0 255
0.000000 0.000000 0.230401 0 0 255
0.000000 0.000000 0.235759 0 0 255
0.000000 0.000000 0.241117 0 0 255
0.000000 0.000000 0.246475 0 0 255
0.000000 0.000000 0.251833 0 0 255
0.000000 0.000000 0.257192 0 0 255
0.000000 0.000000 0.262550 0 0 255
0.000000 0.000000 0.267908 0 0 255
0.000000 0.000000 0.273266 0 0 255
0.000000 0.000000 0.278624 0 0 255
0.000000 0.000000 0.283982 0 0 255
0.000000 0.000000 0.289341 0 0 255
0.000000 0.000000 0.294699 0 0 255
0.000000 0.000000 0.300057 0 0 255
0.000000 0.000000 0.305415 0 0 255
0.000000 0.000000 0.310773 0 0 255
0.000000 0.000000 0.316131 0 0 255
0.000000 0.000000 0.321489 0 0 255
0.000000 0.000000 0.326848 0 0 255
0.000000 0.000000 0.332206 0 0 255
0.000000 0.000000 0.337564 0 0 255
0.000000 0.000000 0.342922 0 0 255
0.000000 0.000000 0.348280 0 0 255
0.000000 0.000000 0.353638 0 0 255
0.000000 0.000000 0.358997 0 0 255
0.000000 0.000000 0.364355 0 0 255
0.000000 0.000000 0.369713 0 0 255
0.000000 0.000000 0.375071 0 0 255
0.000000 0.000000 0.380429 0 0 255
0.000000 0.000000 0.385787 0 0 255
0.000000 0.000000 0.391146 0 0 255
0.000000 0.000000 0.396504 0 0 255
0.000000 0.000000 0.401862 0 0 255
0.000000 0.000000 0.407220 0 0 255
0.000000 0.000000 0.412578 0 0 255
0.000000 0.000000 0.417936 0 0 255
0.000000 0.000000 0.423295 0 0 255
0.000000 0.000000 0.428653 0 0 255
0.000000 0.000000 0.434011 0 0 255
0.000000 0.000000 0.439369 0 0 255
0.000000 0.000000 0.444727 0 0 255
0.000000 0.000000 0.450085 0 0 255
0.000000 0.000000 0.455443 0 0 255
0.000000 0.000000 0.460802 0 0 255
0.000000 0.000000 0.466160 0 0 255
0.000000 0.000000 0.471518 0 0 255
0.000000 0.000000 0.476876 0 0 255
0.000000 0.000000 0.482234 0 0 255
0.000000 0.000000 0.487592 0 0 255
0.000000 0.000000 0.492951 0 0 255
0.000000 0.000000 0.498309 0 0 255
0.000000 0.000000 0.503667 0 0 255
0.000000 0.000000 0.509025 0 0 255
0.000000 0.000000 0.514383 0 0 255
0.000000 0.000000 0.519741 0 0 255
0.000000 0.000000 0.525100 0 0 255
0.000000 0.000000 0.530458 0 0 255
0.000000 0.000000 0.535816 0 0 255
0.000000 0.000000 0.541174 0 0 255
0.000000 0.000000 0.546532 0 0 255
0.000000 0.000000 0.551890 0 0 255
0.000000 0.000000 0.557248 0 0 255
0.000000 0.000000 0.562607 0 0 255
0.000000 0.000000 0.567965 0 0 255
0.000000 0.000000 0.573323 0 0 255
0.000000 0.000000 0.578681 0 0 255
0.000000 0.000000 0.584039 0 0 255
0.000000 0.000000 0.589397 0 0 255
0.000000 0.000000 0.594756 0 0 255
0.000000 0.000000 0.600114 0 0 255
0.000000 0.000000 0.605472 0 0 255
0.000000 0.000000 0.610830 0 0 255
0.000000 0.000000 0.616188 0 0 255
0.000000 0.000000 0.621546 0 0 255
0.000000 0.000000 0.626905 0 0 255
0.000000 0.000000 0.632263 0 0 255
0.000000 0.000000 0.637621 0 0 255
0.000000 0.000000 0.642979 0 0 255
0.000000 0.000000 0.648337 0 0 255
0.000000 0.000000 0.653695 0 0 255
0.000000 0.000000 0.659053 0 0 255
0.000000 0.000000 0.664412 0 0 255
0.000000 0.000000 0.669770 0 0 255
0.000000 0.000000 0.675128 0 0 255
0.000000 0.000000 0.680486 0 0 255
0.000000 0.000000 0.685844 0 0 255
0.000000 0.000000 0.691202 0 0 255
0.000000 0.000000 0.696561 0 0 255
0.000000 0.000000 0.701919 0 0 255
0.000000 0.000000 0.707277 0 0 255
0.000000 0.000000 0.712635 0 0 255
0.000000 0.000000 0.717993 0 0 255
0.000000 0.000000 0.723351 0 0 255
0.000000 0.000000 0.728710 0 0 255
0.000000 0.000000 0.734068 0 0 255
0.000000 0.000000 0.739426 0 0 255
0.000000 0.000000 0.744784 0 0 255
0.000000 0.000000 0.750142 0 0 255
0.000000 0.000000 0.755500 0 0 255
0.000000 0.000000 0.760858 0 0 255
0.000000 0.000000 0.766217 0 0 255
0.000000 0.000000 0.771575 0 0 255
0.000000 0.000000 0.776933 0 0 255
0.000000 0.000000 0.782291 0 0 255
0.000000 0.000000 0.787649 0 0 255
0.000000 0.000000 0.793007 0 0 255
0.000000 0.000000 0.798366 0 0 255
0.000000 0.000000 0.803724 0 0 255
0.000000 0.000000 0.809082 0 0 255
0.000000 0.000000 0.814440 0 0 255
0.000000 0.000000 0.819798 0 0 255
0.000000 0.000000 0.825156 0 0 255
0.000000 0.000000 0.830515 0 0 255
0.000000 0.000000 0.835873 0 0 255
0.000000 0.000000 0.841231 0 0 255
0.000000 0.000000 0.846589 0 0 255
0.000000 0.000000 0.851947 0 0 255
0.000000 0.000000 0.857305 0 0 255
0.000000 0.000000 0.862663 0 0 255
0.000000 0.000000 0.868022 0 0 255
0.000000 0.000000 0.873380 0 0 255
0.000000 0.000000 0.878738 0 0 255
0.000000 0.000000 0.884096 0 0 255
0.000000 0.000000 0.889454 0 0 255
0.000000 0.000000 0.894812 0 0 255
0.000000 0.000000 0.900171 0 0 255
0.000000 0.000000 0.905529 0 0 255
0.000000 0.000000 0.910887 0 0 255
0.000000 0.000000 0.916245 0 0 255
0.000000 0.000000 0.921603 0 0 255
0.000000 0.000000 0.926961 0 0 255
0.000000 0.000000 0.932320 0 0 255
0.000000 0.000000 0.937678 0 0 255
0.000000 0.000000 0.943036 0 0 255
0.000000 0.000000 0.948394 0 0 255
0.000000 0.000000 0.953752 0 0 255
0.000000 0.000000 0.959110 0 0 255
0.000000 0.000000 0.964468 0 0 255
0.000000 0.000000 0.969827 0 0 255
0.000000 0.000000 0.975185 0 0 255
0.000000 0.000000 0.980543 0 0 255
0.000000 0.000000 0.985901 0 0 255
0.000000 0.000000 0.991259 0 0 255
0.000000 0.000000 0.996617 0 0 255
0.000000 0.000000 1.001976 0 0 255
0.000000 0.000000 1.007334 0 0 255
0.000000 0.000000 1.012692 0 0 255
0.000000 0.000000 1.018050 0 0 255
0.000000 0.000000 1.023408 0 0 255
0.000000 0.000000 1.028766 0 0 255
0.000000 0.000000 1.034125 0 0 255
0.000000 0.000000 1.039483 0 0 255
0.000000 0.000000 1.044841 0 0 255
0.000000 0.000000 1.050199 0 0 255
0.000000 0.000000 1.055557 0 0 255
0.000000 0.000000 1.060915 0 0 255
0.000000 0.000000 1.066274 0 0 255
0.000000 0.000000 1.071632 0 0 255
0.000000 0.000000 1.076990 0 0 255
0.000000 0.000000 1.082348 0 0 255
0.000000 0.000000 1.087706 0 0 255
0.000000 0.000000 1.093064 0 0 255
0.000000 0.000000 1.098422 0 0 255
0.000000 0.000000 1.103781 0 0 255
0.000000 0.000000 1.109139 0 0 255
0.000000 0.000000 1.114497 0 0 255
0.000000 0.000000 1.119855 0 0 255
0.000000 0.000000 1.125213 0 0 255
0.000000 0.000000 1.130571 0 0 255
0.000000 0.000000 1.135930 0 0 255
0.000000 0.000000 1.141288 0 0 255
0.000000 0.000000 1.146646 0 0 255
0.000000 0.000000 1.152004 0 0 255
0.000000 0.000000 1.157362 0 0 255
0.000000 0.000000 1.162720 0 0 255
0.000000 0.000000 1.168079 0 0 255
0.000000 0.000000 1.173437 0 0 255
0.000000 0.000000 1.178795 0 0 255
0.000000 0.000000 1.184153 0 0 255
0.000000 0.000000 1.189511 0 0 255
0.000000 0.000000 1.194869 0 0 255
0.000000 0.000000 1.200227 0 0 255
0.000000 0.000000 1.205586 0 0 255
0.000000 0.000000 1.210944 0 0 255
0.000000 0.000000 1.216302 0 0 255
0.000000 0.000000 1.221660 0 0 255
0.000000 0.000000 1.227018 0 0 255
0.000000 0.000000 1.232376 0 0 255
0.000000 0.000000 1.237735 0 0 255
0.000000 0.000000 1.243093 0 0 255
0.000000 0.000000 1.248451 0 0 255
0.000000 0.000000 1.253809 0 0 255
0.000000 0.000000 1.259167 0 0 255
0.000000 0.000000 1.264525 0 0 255
0.000000 0.000000 1.269884 0 0 255
0.000000 0.000000 1.275242 0 0 255
0.000000 0.000000 1.280600 0 0 255
0.000000 0.000000 1.285958 0 0 255
0.000000 0.000000 1.291316 0 0 255
0.000000 0.000000 1.296674 0 0 255
0.000000 0.000000 1.302032 0 0 255
0.000000 0.000000 1.307391 0 0 255
0.000000 0.000000 1.312749 0 0 255
0.000000 0.000000 1.318107 0 0 255
0.000000 0.000000 1.323465 0 0 255
0.000000 0.000000 1.328823 0 0 255
0.000000 0.000000 1.334181 0 0 255
0.000000 0.000000 1.339540 0 0 255
0.000000 0.000000 1.344898 0 0 255
0.000000 0.000000 1.350256 0 0 255
0.000000 0.000000 1.355614 0 0 255
0.000000 0.000000 1.360972 0 0 255
0.000000 0.000000 1.366330 0 0 255
0.000000 0.000000 1.371689 0 0 255
0.000000 0.000000 1.377047 0 0 255
0.000000 0.000000 1.382405 0 0 255
0.000000 0.000000 1.387763 0 0 255
0.000000 0.000000 1.393121 0 0 255
0.000000 0.000000 1.398479 0 0 255
0.000000 0.000000 1.403837 0 0 255
0.000000 0.000000 1.409196 0 0 255
0.000000 0.000000 1.414554 0 0 255
0.000000 0.000000 1.419912 0 0 255
0.000000 0.000000 1.425270 0 0 255
0.000000 0.000000 1.430628 0 0 255
0.000000 0.000000 1.435986 0 0 255
0.000000 0.000000 1.441345 0 0 255
0.000000 0.000000 1.446703 0 0 255
0.000000 0.000000 1.452061 0 0 255
0.000000 0.000000 1.457419 0 0 255
0.000000 0.000000 1.462777 0 0 255
0.000000 0.000000 1.468135 0 0 255
0.000000 0.000000 1.473494 0 0 255
0.000000 0.000000 1.478852 0 0 255
0.000000 0.000000 1.484210 0 0 255
0.000000 0.000000 1.489568 0 0 255
0.000000 0.000000 1.494926 0 0 255
0.000000 0.000000 1.500284 0 0 255
0.000000 0.000000 1.505642 0 0 255
0.000000 0.000000 1.511001 0 0 255
0.000000 0.000000 1.516359 0 0 255
0.000000 0.000000 1.521717 0 0 255
0.000000 0.000000 1.527075 0 0 255
0.000000 0.000000 1.532433 0 0 255
0.000000 0.000000 1.537791 0 0 255
0.000000 0.000000 1.543150 0 0 255
0.000000 0.000000 1.548508 0 0 255
0.000000 0.000000 1.553866 0 0 255
0.000000 0.000000 1.559224 0 0 255
0.000000 0.000000 1.564582 0 0 255
0.000000 0.000000 1.569940 0 0 255
0.000000 0.000000 1.575299 0 0 255
0.000000 0.000000 1.580657 0 0 255
0.000000 0.000000 1.586015 0 0 255
0.000000 0.000000 1.591373 0 0 255
0.000000 0.000000 1.596731 0 0 255
0.000000 0.000000 1.602089 0 0 255
0.000000 0.000000 1.607447 0 0 255
0.000000 0.000000 1.612806 0 0 255
0.000000 0.000000 1.618164 0 0 255
0.000000 0.000000 1.623522 0 0 255
0.000000 0.000000 1.628880 0 0 255
0.000000 0.000000 1.634238 0 0 255
0.000000 0.000000 1.639596 0 0 255
0.000000 0.000000 1.644955 0 0 255
0.000000 0.000000 1.650313 0 0 255
0.000000 0.000000 1.655671 0 0 255
0.000000 0.000000 1.661029 0 0 255
0.000000 0.000000 1.666387 0 0 255
0.000000 0.000000 1.671745 0 0 255
0.000000 0.000000 1.677104 0 0 255
0.000000 0.000000 1.682462 0 0 255
0.000000 0.000000 1.687820 0 0 255
0.000000 0.000000 1.693178 0 0 255
0.000000 0.000000 1.698536 0 0 255
0.000000 0.000000 1.703894 0 0 255
0.000000 0.000000 1.709253 0 0 255
0.000000 0.000000 1.714611 0 0 255
0.000000 0.000000 1.719969 0 0 255
0.000000 0.000000 1.725327 0 0 255
0.000000 0.000000 1.730685 0 0 255
0.000000 0.000000 1.736043 0 0 255
0.000000 0.000000 1.741401 0 0 255
0.000000 0.000000 1.746760 0 0 255
0.000000 0.000000 1.752118 0 0 255
0.000000 0.000000 1.757476 0 0 255
0.000000 0.000000 1.762834 0 0 255
0.000000 0.000000 1.768192 0 0 255
0.000000 0.000000 1.773550 0 0 255
0.000000 0.000000 1.778909 0 0 255
0.000000 0.000000 1.784267 0 0 255
0.000000 0.000000 1.789625 0 0 255
0.000000 0.000000 1.794983 0 0 255
0.000000 0.000000 1.800341 0 0 255
0.000000 0.000000 1.805699 0 0 255
0.000000 0.000000 1.811058 0 0 255
0.000000 0.000000 1.816416 0 0 255
0.000000 0.000000 1.821774 0 0 255
0.000000 0.000000 1.827132 0 0 255
0.000000 0.000000 1.832490 0 0 255
0.000000 0.000000 1.837848 0 0 255
0.000000 0.000000 1.843206 0 0 255
0.000000 0.000000 1.848565 0 0 255
0.000000 0.000000 1.853923 0 0 255
0.000000 0.000000 1.859281 0 0 255
0.000000 0.000000 1.864639 0 0 255
0.000000 0.000000 1.869997 0 0 255
0.000000 0.000000 1.875355 0 0 255
0.000000 0.000000 1.880714 0 0 255
0.000000 0.000000 1.886072 0 0 255
0.000000 0.000000 1.891430 0 0 255
0.000000 0.000000 1.896788 0 0 255
0.000000 0.000000 1.902146 0 0 255
0.000000 0.000000 1.907504 0 0 255
0.000000 0.000000 1.912863 0 0 255
0.000000 0.000000 1.918221 0 0 255
0.000000 0.000000 1.923579 0 0 255
0.000000 0.000000 1.928937 0 0 255
0.000000 0.000000 1.934295 0 0 255
0.000000 0.000000 1.939653 0 0 255
0.000000 0.000000 1.945011 0 0 255
0.000000 0.000000 1.950370 0 0 255
0.000000 0.000000 1.955728 0 0 255
0.000000 0.000000 1.961086 0 0 255
0.000000 0.000000 1.966444 0 0 255
0.000000 0.000000 1.971802 0 0 255
0.000000 0.000000 1.977160 0 0 255
0.000000 0.000000 1.982519 0 0 255
0.000000 0.000000 1.987877 0 0 255
0.000000 0.000000 1.993235 0 0 255
0.000000 0.000000 1.998593 0 0 255
0.000000 0.000000 2.003951 0 0 255
0.000000 0.000000 2.009309 0 0 255
0.000000 0.000000 2.014668 0 0 255
0.000000 0.000000 2.020026 0 0 255
0.000000 0.000000 2.025384 0 0 255
0.000000 0.000000 2.030742 0 0 255
0.000000 0.000000 2.036100 0 0 255
0.000000 0.000000 2.041458 0 0 255
0.000000 0.000000 2.046816 0 0 255
0.000000 0.000000 2.052175 0 0 255
0.000000 0.000000 2.057533 0 0 255
0.000000 0.000000 2.062891 0 0 255
0.000000 0.000000 2.068249 0 0 255
0.000000 0.000000 2.073607 0 0 255
0.000000 0.000000 2.078965 0 0 255
0.000000 0.000000 2.084324 0 0 255
0.000000 0.000000 2.089682 0 0 255
0.000000 0.000000 2.095040 0 0 255
0.000000 0.000000 2.100398 0 0 255
0.000000 0.000000 2.105756 0 0 255
0.000000 0.000000 2.111114 0 0 255
0.000000 0.000000 2.116473 0 0 255
0.000000 0.000000 2.121831 0 0 255
0.000000 0.000000 2.127189 0 0 255
0.000000 0.000000 2.132547 0 0 255
0.000000 0.000000 2.137905 0 0 255
0.000000 0.000000 2.143263 0 0 255
0.000000 0.000000 2.148621 0 0 255
0.000000 0.000000 2.153980 0 0 255
0.000000 0.000000 2.159338 0 0 255
0.000000 0.000000 2.164696 0 0 255
0.000000 0.000000 2.170054 0 0 255
0.000000 0.000000 2.175412 0 0 255
0.000000 0.000000 2.180770 0 0 255
0.000000 0.000000 2.186129 0 0 255
0.000000 0.000000 2.191487 0 0 255
0.000000 0.000000 2.196845 0 0 255
0.000000 0.000000 2.202203 0 0 255
0.000000 0.000000 2.207561 0 0 255
0.000000 0.000000 2.212919 0 0 255
0.000000 0.000000 2.218278 0 0 255
0.000000 0.000000 2.223636 0 0 255
0.000000 0.000000 2.228994 0 0 255
0.000000 0.000000 2.234352 0 0 255
0.000000 0.000000 2.239710 0 0 255
0.000000 0.000000 2.245068 0 0 255
0.000000 0.000000 2.250426 0 0 255
0.000000 0.000000 2.255785 0 0 255
0.000000 0.000000 2.261143 0 0 255
0.000000 0.000000 2.266501 0 0 255
0.000000 0.000000 2.271859 0 0 255
0.000000 0.000000 2.277217 0 0 255
0.000000 0.000000 2.282575 0 0 255
0.000000 0.000000 2.287934 0 0 255
0.000000 0.000000 2.293292 0 0 255
0.000000 0.000000 2.298650 0 0 255
0.000000 0.000000 2.304008 0 0 255
0.000000 0.000000 2.309366 0 0 255
0.000000 0.000000 2.314724 0 0 255
0.000000 0.000000 2.320083 0 0 255
0.000000 0.000000 2.325441 0 0 255
0.000000 0.000000 2.330799 0 0 255
0.000000 0.000000 2.336157 0 0 255
0.000000 0.000000 2.341515 0 0 255
0.000000 0.000000 2.346873 0 0 255
0.000000 0.000000 2.352232 0 0 255
0.000000 0.000000 2.357590 0 0 255
0.000000 0.000000 2.362948 0 0 255
0.000000 0.000000 2.368306 0 0 255
0.000000 0.000000 2.373664 0 0 255
0.000000 0.000000 2.379022 0 0 255
0.000000 0.000000 2.384380 0 0 255
0.000000 0.000000 2.389739 0 0 255
0.000000 0.000000 2.395097 0 0 255
0.000000 0.000000 2.400455 0 0 255
0.000000 0.000000 2.405813 0 0 255
0.000000 0.000000 2.411171 0 0 255
0.000000 0.000000 2.416529 0 0 255
0.000000 0.000000 2.421888 0 0 255
0.000000 0.000000 2.427246 0 0 255
0.000000 0.000000 2.432604 0 0 255
0.000000 0.000000 2.437962 0 0 255
0.000000 0.000000 2.443320 0 0 255
0.000000 0.000000 2.448678 0 0 255
0.000000 0.000000 2.454037 0 0 255
0.000000 0.000000 2.459395 0 0 255
0.000000 0.000000 2.464753 0 0 255
0.000000 0.000000 2.470111 0 0 255
0.000000 0.000000 2.475469 0 0 255
0.000000 0.000000 2.480827 0 0 255
0.000000 0.000000 2.486185 0 0 255
0.000000 0.000000 2.491544 0 0 255
0.000000 0.000000 2.496902 0 0 255
0.000000 0.000000 2.502260 0 0 255
0.000000 0.000000 2.507618 0 0 255
0.000000 0.000000 2.512976 0 0 255
0.000000 0.000000 2.518334 0 0 255
0.000000 0.000000 2.523693 0 0 255
0.000000 0.000000 2.529051 0 0 255
0.000000 0.000000 2.534409 0 0 255
0.000000 0.000000 2.539767 0 0 255
0.000000 0.000000 2.545125 0 0 255
0.000000 0.000000 2.550483 0 0 255
0.000000 0.000000 2.555842 0 0 255
0.000000 0.000000 2.561200 0 0 255
0.000000 0.000000 2.566558 0 0 255
0.000000 0.000000 2.571916 0 0 255
0.000000 0.000000 2.577274 0 0 255
0.000000 0.000000 2.582632 0 0 255
0.000000 0.000000 2.587990 0 0 255
0.000000 0.000000 2.593349 0 0 255
0.000000 0.000000 2.598707 0 0 255
0.000000 0.000000 2.604065 0 0 255
0.000000 0.000000 2.609423 0 0 255
0.000000 0.000000 2.614781 0 0 255
0.000000 0.000000 2.620139 0 0 255
0.000000 0.000000 2.625498 0 0 255
0.000000 0.000000 2.630856 0 0 255
0.000000 0.000000 2.636214 0 0 255
0.000000 0.000000 2.641572 0 0 255
0.000000 0.000000 2.646930 0 0 255
0.000000 0.000000 2.652288 0 0 255
0.000000 0.000000 2.657647 0 0 255
0.000000 0.000000 2.663005 0 0 255
0.000000 0.000000 2.668363 0 0 255
0.000000 0.000000 2.673721 0 0 255
0.000000 -0.000000 -0.000000 0 220 220
0.001094 -0.000647 -0.005205 0 220 220
0.002189 -0.001295 -0.010410 0 220 220
0.003283 -0.001942 -0.015615 0 220 220
0.004378 -0.002590 -0.020820 0 220 220
0.005472 -0.003237 -0.026025 0 220 220
0.006567 -0.003885 -0.031230 0 220 220
0.007661 -0.004532 -0.036436 0 220 220
0.008756 -0.005180 -0.041641 0 220 220
0.009850 -0.005827 -0.046846 0 220 220
0.010944 -0.006475 -0.052051 0 220 220
0.012039 -0.007122 -0.057256 0 220 220
0.013133 -0.007770 -0.062461 0 220 220
0.014228 -0.008417 -0.067666 0 220 220
0.015322 -0.009065 -0.072871 0 220 220
0.016417 -0.009712 -0.078076 0 220 220
0.017511 -0.010360 -0.083281 0 220 220
0.018606 -0.011007 -0.088486 0 220 220
0.019700 -0.011655 -0.093691 0 220 220
0.020795 -0.012302 -0.098896 0 220 220
0.021889 -0.012949 -0.104102 0 220 220
0.022983 -0.013597 -0.109307 0 220 220
0.024078 -0.014244 -0.114512 0 220 220
0.025172 -0.014892 -0.119717 0 220 220
0.026267 -0.015539 -0.124922 0 220 220
0.027361 -0.016187 -0.130127 0 220 220
0.028456 -0.016834 -0.135332 0 220 220
0.029550 -0.017482 -0.140537 0 220 220
0.030645 -0.018129 -0.145742 0 220 220
0.031739 -0.018777 -0.150947 0 220 220
0.032833 -0.019424 -0.156152 0 220 220
0.033928 -0.020072 -0.161357 0 220 220
0.035022 -0.020719 -0.166562 0 220 220
0.036117 -0.021367 -0.171768 0 220 220
0.037211 -0.022014 -0.176973 0 220 220
0.038306 -0.022662 -0.182178 0 220 220
0.039400 -0.023309 -0.187383 0 220 220
0.040495 -0.023957 -0.192588 0 220 220
0.041589 -0.024604 -0.197793 0 220 220
0.042683 -0.025252 -0.202998 0 220 220
0.043778 -0.025899 -0.208203 0 220 220
0.044872 -0.026546 -0.213408 0 220 220
0.045967 -0.027194 -0.218613 0 220 220
0.047061 -0.027841 -0.223818 0 220 220
0.048156 -0.028489 -0.229023 0 220 220
0.049250 -0.029136 -0.234228 0 220 220
0.050345 -0.029784 -0.239434 0 220 220
0.051439 -0.030431 -0.244639 0 220 220
0.052534 -0.031079 -0.249844 0 220 220
0.053628 -0.031726 -0.255049 0 220 220
0.054722 -0.032374 -0.260254 0 220 220
0.055817 -0.033021 -0.265459 0 220 220
0.056911 -0.033669 -0.270664 0 220 220
0.058006 -0.034316 -0.275869 0 220 220
0.059100 -0.034964 -0.281074 0 220 220
0.060195 -0.035611 -0.286279 0 220 220
0.061289 -0.036259 -0.291484 0 220 220
0.062384 -0.036906 -0.296689 0 220 220
0.063478 -0.037554 -0.301894 0 220 220
0.064572 -0.038201 -0.307100 0 220 220
0.065667 -0.038848 -0.312305 0 220 220
0.066761 -0.039496 -0.317510 0 220 220
0.067856 -0.040143 -0.322715 0 220 220
0.068950 -0.040791 -0.327920 0 220 220
0.070045 -0.041438 -0.333125 0 220 220
0.071139 -0.042086 -0.338330 0 220 220
0.072234 -0.042733 -0.343535 0 220 220
0.073328 -0.043381 -0.348740 0 220 220
0.074422 -0.044028 -0.353945 0 220 220
0.075517 -0.044676 -0.359150 0 220 220
0.076611 -0.045323 -0.364355 0 220 220
0.077706 -0.045971 -0.369560 0 220 220
0.078800 -0.046618 -0.374766 0 220 220
0.079895 -0.047266 -0.379971 0 220 220
0.080989 -0.047913 -0.385176 0 220 220
0.082084 -0.048561 -0.390381 0 220 220
0.083178 -0.049208 -0.395586 0 220 220
0.084273 -0.049856 -0.400791 0 220 220
0.085367 -0.050503 -0.405996 0 220 220
0.086461 -0.051150 -0.411201 0 220 220
0.087556 -0.051798 -0.416406 0 220 220
0.088650 -0.052445 -0.421611 0 220 220
0.089745 -0.053093 -0.426816 0 220 220
0.090839 -0.053740 -0.432021 0 220 220
0.091934 -0.054388 -0.437226 0 220 220
0.093028 -0.055035 -0.442431 0 220 220
0.094123 -0.055683 -0.447637 0 220 220
0.095217 -0.056330 -0.452842 0 220 220
0.096311 -0.056978 -0.458047 0 220 220
0.097406 -0.057625 -0.463252 0 220 220
0.098500 -0.058273 -0.468457 0 220 220
0.099595 -0.058920 -0.473662 0 220 220
0.100689 -0.059568 -0.478867 0 220 220
0.101784 -0.060215 -0.484072 0 220 220
0.102878 -0.060863 -0.489277 0 220 220
0.103973 -0.061510 -0.494482 0 220 220
0.105067 -0.062158 -0.499687 0 220 220
0.106161 -0.062805 -0.504892 0 220 220
0.107256 -0.063453 -0.510097 0 220 220
0.108350 -0.064100 -0.515303 0 220 220
0.109445 -0.064747 -0.520508 0 220 220
0.110539 -0.065395 -0.525713 0 220 220
0.111634 -0.066042 -0.530918 0 220 220
0.112728 -0.066690 -0.536123 0 220 220
0.113823 -0.067337 -0.541328 0 220 220
0.114917 -0.067985 -0.546533 0 220 220
0.116012 -0.068632 -0.551738 0 220 220
0.117106 -0.069280 -0.556943 0 220 220
0.118200 -0.069927 -0.562148 0 220 220
0.119295 -0.070575 -0.567353 0 220 220
0.120389 -0.071222 -0.572558 0 220 220
0.121484 -0.071870 -0.577763 0 220 220
0.122578 -0.072517 -0.582969 0 220 220
0.123673 -0.073165 -0.588174 0 220 220
0.124767 -0.073812 -0.593379 0 220 220
0.125862 -0.074460 -0.598584 0 220 220
0.126956 -0.075107 -0.603789 0 220 220
0.128050 -0.075755 -0.608994 0 220 220
0.129145 -0.076402 -0.614199 0 220 220
0.130239 -0.077049 -0.619404 0 220 220
0.131334 -0.077697 -0.624609 0 220 220
0.132428 -0.078344 -0.629814 0 220 220
0.133523 -0.078992 -0.635019 0 220 220
0.134617 -0.079639 -0.640224 0 220 220
0.135712 -0.080287 -0.645429 0 220 220
0.136806 -0.080934 -0.650635 0 220 220
0.137900 -0.081582 -0.655840 0 220 220
0.138995 -0.082229 -0.661045 0 220 220
0.140089 -0.082877 -0.666250 0 220 220
0.141184 -0.083524 -0.671455 0 220 220
0.142278 -0.084172 -0.676660 0 220 220
0.143373 -0.084819 -0.681865 0 220 220
0.144467 -0.085467 -0.687070 0 220 220
0.145562 -0.086114 -0.692275 0 220 220
0.146656 -0.086762 -0.697480 0 220 220
0.147751 -0.087409 -0.702685 0 220 220
0.148845 -0.088057 -0.707890 0 220 220
0.149939 -0.088704 -0.713095 0 220 220
0.151034 -0.089351 -0.718301 0 220 220
0.152128 -0.089999 -0.723506 0 220 220
0.153223 -0.090646 -0.728711 0 220 220
0.154317 -0.091294 -0.733916 0 220 220
0.155412 -0.091941 -0.739121 0 220 220
0.156506 -0.092589 -0.744326 0 220 220
0.157601 -0.093236 -0.749531 0 220 220
0.158695 -0.093884 -0.754736 0 220 220
0.159789 -0.094531 -0.759941 0 220 220
0.160884 -0.095179 -0.765146 0 220 220
0.161978 -0.095826 -0.770351 0 220 220
0.163073 -0.096474 -0.775556 0 220 220
0.164167 -0.097121 -0.780761 0 220 220
0.165262 -0.097769 -0.785967 0 220 220
0.166356 -0.098416 -0.791172 0 220 220
0.167451 -0.099064 -0.796377 0 220 220
0.168545 -0.099711 -0.801582 0 220 220
0.169639 -0.100359 -0.806787 0 220 220
0.170734 -0.101006 -0.811992 0 220 220
0.171828 -0.101653 -0.817197 0 220 220
0.172923 -0.102301 -0.822402 0 220 220
0.174017 -0.102948 -0.827607 0 220 220
0.175112 -0.103596 -0.832812 0 220 220
0.176206 -0.104243 -0.838017 0 220 220
0.177301 -0.104891 -0.843222 0 220 220
0.178395 -0.105538 -0.848427 0 220 220
0.179490 -0.106186 -0.853633 0 220 220
0.180584 -0.106833 -0.858838 0 220 220
0.181678 -0.107481 -0.864043 0 220 220
0.182773 -0.108128 -0.869248 0 220 220
0.183867 -0.108776 -0.874453 0 220 220
0.184962 -0.109423 -0.879658 0 220 220
0.186056 -0.110071 -0.884863 0 220 220
0.187151 -0.110718 -0.890068 0 220 220
0.188245 -0.111366 -0.895273 0 220 220
0.189340 -0.112013 -0.900478 0 220 220
0.190434 -0.112661 -0.905683 0 220 220
0.191528 -0.113308 -0.910888 0 220 220
0.192623 -0.113956 -0.916093 0 220 220
0.193717 -0.114603 -0.921299 0 220 220
0.194812 -0.115250 -0.926504 0 220 220
0.195906 -0.115898 -0.931709 0 220 220
0.197001 -0.116545 -0.936914 0 220 220
0.198095 -0.117193 -0.942119 0 220 220
0.199190 -0.117840 -0.947324 0 220 220
0.200284 -0.118488 -0.952529 0 220 220
0.201378 -0.119135 -0.957734 0 220 220
0.202473 -0.119783 -0.962939 0 220 220
0.203567 -0.120430 -0.968144 0 220 220
0.204662 -0.121078 -0.973349 0 220 220
0.205756 -0.121725 -0.978554 0 220 220
0.206851 -0.122373 -0.983759 0 220 220
0.207945 -0.123020 -0.988965 0 220 220
0.209040 -0.123668 -0.994170 0 220 220
0.210134 -0.124315 -0.999375 0 220 220
0.211229 -0.124963 -1.004580 0 220 220
0.212323 -0.125610 -1.009785 0 220 220
0.213417 -0.126258 -1.014990 0 220 220
0.214512 -0.126905 -1.020195 0 220 220
0.215606 -0.127552 -1.025400 0 220 220
0.216701 -0.128200 -1.030605 0 220 220
0.217795 -0.128847 -1.035810 0 220 220
0.218890 -0.129495 -1.041015 0 220 220
0.219984 -0.130142 -1.046220 0 220 220
0.221079 -0.130790 -1.051425 0 220 220
0.222173 -0.131437 -1.056631 0 220 220
0.223267 -0.132085 -1.061836 0 220 220
0.224362 -0.132732 -1.067041 0 220 220
0.225456 -0.133380 -1.072246 0 220 220
0.226551 -0.134027 -1.077451 0 220 220
0.227645 -0.134675 -1.082656 0 220 220
0.228740 -0.135322 -1.087861 0 220 220
0.229834 -0.135970 -1.093066 0 220 220
0.230929 -0.136617 -1.098271 0 220 220
0.232023 -0.137265 -1.103476 0 220 220
0.233117 -0.137912 -1.108681 0 220 220
0.234212 -0.138560 -1.113886 0 220 220
0.235306 -0.139207 -1.119091 0 220 220
0.236401 -0.139854 -1.124297 0 220 220
0.237495 -0.140502 -1.129502 0 220 220
0.238590 -0.141149 -1.134707 0 220 220
0.239684 -0.141797 -1.139912 0 220 220
0.240779 -0.142444 -1.145117 0 220 220
0.241873 -0.143092 -1.150322 0 220 220
0.242968 -0.143739 -1.155527 0 220 220
0.244062 -0.144387 -1.160732 0 220 220
0.245156 -0.145034 -1.165937 0 220 220
0.246251 -0.145682 -1.171142 0 220 220
0.247345 -0.146329 -1.176347 0 220 220
0.248440 -0.146977 -1.181552 0 220 220
0.249534 -0.147624 -1.186757 0 220 220
0.250629 -0.148272 -1.191962 0 220 220
0.251723 -0.148919 -1.197168 0 220 220
0.252818 -0.149567 -1.202373 0 220 220
0.253912 -0.150214 -1.207578 0 220 220
0.255006 -0.150862 -1.212783 0 220 220
0.256101 -0.151509 -1.217988 0 220 220
0.257195 -0.152157 -1.223193 0 220 220
0.258290 -0.152804 -1.228398 0 220 220
0.259384 -0.153451 -1.233603 0 220 220
0.260479 -0.154099 -1.238808 0 220 220
0.261573 -0.154746 -1.244013 0 220 220
0.262668 -0.155394 -1.249218 0 220 220
0.263762 -0.156041 -1.254423 0 220 220
0.264856 -0.156689 -1.259628 0 220 220
0.265951 -0.157336 -1.264834 0 220 220
0.267045 -0.157984 -1.270039 0 220 220
0.268140 -0.158631 -1.275244 0 220 220
0.269234 -0.159279 -1.280449 0 220 220
0.270329 -0.159926 -1.285654 0 220 220
0.271423 -0.160574 -1.290859 0 220 220
0.272518 -0.161221 -1.296064 0 220 220
0.273612 -0.161869 -1.301269 0 220 220
0.274707 -0.162516 -1.306474 0 220 220
0.275801 -0.163164 -1.311679 0 220 220
0.276895 -0.163811 -1.316884 0 220 220
0.277990 -0.164459 -1.322089 0 220 220
0.279084 -0.165106 -1.327294 0 220 220
0.280179 -0.165753 -1.332500 0 220 220
0.281273 -0.166401 -1.337705 0 220 220
0.282368 -0.167048 -1.342910 0 220 220
0.283462 -0.167696 -1.348115 0 220 220
0.284557 -0.168343 -1.353320 0 220 220
0.285651 -0.168991 -1.358525 0 220 220
0.286745 -0.169638 -1.363730 0 220 220
0.287840 -0.170286 -1.368935 0 220 220
0.288934 -0.170933 -1.374140 0 220 220
0.290029 -0.171581 -1.379345 0 220 220
0.291123 -0.172228 -1.384550 0 220 220
0.292218 -0.172876 -1.389755 0 220 220
0.293312 -0.173523 -1.394960 0 220 220
0.294407 -0.174171 -1.400166 0 220 220
0.295501 -0.174818 -1.405371 0 220 220
0.296595 -0.175466 -1.410576 0 220 220
0.297690 -0.176113 -1.415781 0 220 220
0.298784 -0.176761 -1.420986 0 220 220
0.299879 -0.177408 -1.426191 0 220 220
0.300973 -0.178055 -1.431396 0 220 220
0.302068 -0.178703 -1.436601 0 220 220
0.303162 -0.179350 -1.441806 0 220 220
0.304257 -0.179998 -1.447011 0 220 220
0.305351 -0.180645 -1.452216 0 220 220
0.306446 -0.181293 -1.457421 0 220 220
0.307540 -0.181940 -1.462626 0 220 220
0.308634 -0.182588 -1.467832 0 220 220
0.309729 -0.183235 -1.473037 0 220 220
0.310823 -0.183883 -1.478242 0 220 220
0.311918 -0.184530 -1.483447 0 220 220
0.313012 -0.185178 -1.488652 0 220 220
0.314107 -0.185825 -1.493857 0 220 220
0.315201 -0.186473 -1.499062 0 220 220
0.316296 -0.187120 -1.504267 0 220 220
0.317390 -0.187768 -1.509472 0 220 220
0.318484 -0.188415 -1.514677 0 220 220
0.319579 -0.189063 -1.519882 0 220 220
0.320673 -0.189710 -1.525087 0 220 220
0.321768 -0.190358 -1.530292 0 220 220
0.322862 -0.191005 -1.535498 0 220 220
0.323957 -0.191652 -1.540703 0 220 220
0.325051 -0.192300 -1.545908 0 220 220
0.326146 -0.192947 -1.551113 0 220 220
0.327240 -0.193595 -1.556318 0 220 220
0.328334 -0.194242 -1.561523 0 220 220
0.329429 -0.194890 -1.566728 0 220 220
0.330523 -0.195537 -1.571933 0 220 220
0.331618 -0.196185 -1.577138 0 220 220
0.332712 -0.196832 -1.582343 0 220 220
0.333807 -0.197480 -1.587548 0 220 220
0.334901 -0.198127 -1.592753 0 220 220
0.335996 -0.198775 -1.597958 0 220 220
0.337090 -0.199422 -1.603164 0 220 220
0.338185 -0.200070 -1.608369 0 220 220
0.339279 -0.200717 -1.613574 0 220 220
0.340373 -0.201365 -1.618779 0 220 220
0.341468 -0.202012 -1.623984 0 220 220
0.342562 -0.202660 -1.629189 0 220 220
0.343657 -0.203307 -1.634394 0 220 220
0.344751 -0.203954 -1.639599 0 220 220
0.345846 -0.204602 -1.644804 0 220 220
0.346940 -0.205249 -1.650009 0 220 220
0.348035 -0.205897 -1.655214 0 220 220
0.349129 -0.206544 -1.660419 0 220 220
0.350223 -0.207192 -1.665624 0 220 220
0.351318 -0.207839 -1.670830 0 220 220
0.352412 -0.208487 -1.676035 0 220 220
0.353507 -0.209134 -1.681240 0 220 220
0.354601 -0.209782 -1.686445 0 220 220
0.355696 -0.210429 -1.691650 0 220 220
0.356790 -0.211077 -1.696855 0 220 220
0.357885 -0.211724 -1.702060 0 220 220
0.358979 -0.212372 -1.707265 0 220 220
0.360073 -0.213019 -1.712470 0 220 220
0.361168 -0.213667 -1.717675 0 220 220
0.362262 -0.214314 -1.722880 0 220 220
0.363357 -0.214962 -1.728085 0 220 220
0.364451 -0.215609 -1.733290 0 220 220
0.365546 -0.216256 -1.738496 0 220 220
0.366640 -0.216904 -1.743701 0 220 220
0.367735 -0.217551 -1.748906 0 220 220
0.368829 -0.218199 -1.754111 0 220 220
0.369924 -0.218846 -1.759316 0 220 220
0.371018 -0.219494 -1.764521 0 220 220
0.372112 -0.220141 -1.769726 0 220 220
0.373207 -0.220789 -1.774931 0 220 220
0.374301 -0.221436 -1.780136 0 220 220
0.375396 -0.222084 -1.785341 0 220 220
0.376490 -0.222731 -1.790546 0 220 220
0.377585 -0.223379 -1.795751 0 220 220
0.378679 -0.224026 -1.800956 0 220 220
0.379774 -0.224674 -1.806162 0 220 220
0.380868 -0.225321 -1.811367 0 220 220
0.381962 -0.225969 -1.816572 0 220 220
0.383057 -0.226616 -1.821777 0 220 220
0.384151 -0.227264 -1.826982 0 220 220
0.385246 -0.227911 -1.832187 0 220 220
0.386340 -0.228558 -1.837392 0 220 220
0.387435 -0.229206 -1.842597 0 220 220
0.388529 -0.229853 -1.847802 0 220 220
0.389624 -0.230501 -1.853007 0 220 220
0.390718 -0.231148 -1.858212 0 220 220
0.391812 -0.231796 -1.863417 0 220 220
0.392907 -0.232443 -1.868622 0 220 220
0.394001 -0.233091 -1.873828 0 220 220
0.395096 -0.233738 -1.879033 0 220 220
0.396190 -0.234386 -1.884238 0 220 220
0.397285 -0.235033 -1.889443 0 220 220
0.398379 -0.235681 -1.894648 0 220 220
0.399474 -0.236328 -1.899853 0 220 220
0.400568 -0.236976 -1.905058 0 220 220
0.401663 -0.237623 -1.910263 0 220 220
0.402757 -0.238271 -1.915468 0 220 220
0.403851 -0.238918 -1.920673 0 220 220
0.404946 -0.239566 -1.925878 0 220 220
0.406040 -0.240213 -1.931083 0 220 220
0.407135 -0.240861 -1.936288 0 220 220
0.408229 -0.241508 -1.941493 0 220 220
0.409324 -0.242155 -1.946699 0 220 220
0.410418 -0.242803 -1.951904 0 220 220
0.411513 -0.243450 -1.957109 0 220 220
0.412607 -0.244098 -1.962314 0 220 220
0.413701 -0.244745 -1.967519 0 220 220
0.414796 -0.245393 -1.972724 0 220 220
0.415890 -0.246040 -1.977929 0 220 220
0.416985 -0.246688 -1.983134 0 220 220
0.418079 -0.247335 -1.988339 0 220 220
0.419174 -0.247983 -1.993544 0 220 220
0.420268 -0.248630 -1.998749 0 220 220
0.421363 -0.249278 -2.003954 0 220 220
0.422457 -0.249925 -2.009159 0 220 220
0.423551 -0.250573 -2.014365 0 220 220
0.424646 -0.251220 -2.019570 0 220 220
0.425740 -0.251868 -2.024775 0 220 220
0.426835 -0.252515 -2.029980 0 220 220
0.427929 -0.253163 -2.035185 0 220 220
0.429024 -0.253810 -2.040390 0 220 220
0.430118 -0.254457 -2.045595 0 220 220
0.431213 -0.255105 -2.050800 0 220 220
0.432307 -0.255752 -2.056005 0 220 220
0.433402 -0.256400 -2.061210 0 220 220
0.434496 -0.257047 -2.066415 0 220 220
0.435590 -0.257695 -2.071620 0 220 220
0.436685 -0.258342 -2.076825 0 220 220
0.437779 -0.258990 -2.082031 0 220 220
0.438874 -0.259637 -2.087236 0 220 220
0.439968 -0.260285 -2.092441 0 220 220
0.441063 -0.260932 -2.097646 0 220 220
0.442157 -0.261580 -2.102851 0 220 220
0.443252 -0.262227 -2.108056 0 220 220
0.444346 -0.262875 -2.113261 0 220 220
0.445440 -0.263522 -2.118466 0 220 220
0.446535 -0.264170 -2.123671 0 220 220
0.447629 -0.264817 -2.128876 0 220 220
0.448724 -0.265465 -2.134081 0 220 220
0.449818 -0.266112 -2.139286 0 220 220
0.450913 -0.266759 -2.144491 0 220 220
0.452007 -0.267407 -2.149697 0 220 220
0.453102 -0.268054 -2.154902 0 220 220
0.454196 -0.268702 -2.160107 0 220 220
0.455290 -0.269349 -2.165312 0 220 220
0.456385 -0.269997 -2.170517 0 220 220
0.457479 -0.270644 -2.175722 0 220 220
0.458574 -0.271292 -2.180927 0 220 220
0.459668 -0.271939 -2.186132 0 220 220
0.460763 -0.272587 -2.191337 0 220 220
0.461857 -0.273234 -2.196542 0 220 220
0.462952 -0.273882 -2.201747 0 220 220
0.464046 -0.274529 -2.206952 0 220 220
0.465141 -0.275177 -2.212157 0 220 220
0.466235 -0.275824 -2.217363 0 220 220
0.467329 -0.276472 -2.222568 0 220 220
0.468424 -0.277119 -2.227773 0 220 220
0.469518 -0.277767 -2.232978 0 220 220
0.470613 -0.278414 -2.238183 0 220 220
0.471707 -0.279062 -2.243388 0 220 220
0.472802 -0.279709 -2.248593 0 220 220
0.473896 -0.280356 -2.253798 0 220 220
0.474991 -0.281004 -2.259003 0 220 220
0.476085 -0.281651 -2.264208 0 220 220
0.477179 -0.282299 -2.269413 0 220 220
0.478274 -0.282946 -2.274618 0 220 220
0.479368 -0.283594 -2.279823 0 220 220
0.480463 -0.284241 -2.285029 0 220 220
0.481557 -0.284889 -2.290234 0 220 220
0.482652 -0.285536 -2.295439 0 220 220
0.483746 -0.286184 -2.300644 0 220 220
0.484841 -0.286831 -2.305849 0 220 220
0.485935 -0.287479 -2.311054 0 220 220
0.487029 -0.288126 -2.316259 0 220 220
0.488124 -0.288774 -2.321464 0 220 220
0.489218 -0.289421 -2.326669 0 220 220
0.490313 -0.290069 -2.331874 0 220 220
0.491407 -0.290716 -2.337079 0 220 220
0.492502 -0.291364 -2.342284 0 220 220
0.493596 -0.292011 -2.347489 0 220 220
0.494691 -0.292658 -2.352695 0 220 220
0.495785 -0.293306 -2.357900 0 220 220
0.496880 -0.293953 -2.363105 0 220 220
0.497974 -0.294601 -2.368310 0 220 220
0.499068 -0.295248 -2.373515 0 220 220
0.500163 -0.295896 -2.378720 0 220 220
0.501257 -0.296543 -2.383925 0 220 220
0.502352 -0.297191 -2.389130 0 220 220
0.503446 -0.297838 -2.394335 0 220 220
0.504541 -0.298486 -2.399540 0 220 220
0.505635 -0.299133 -2.404745 0 220 220
0.506730 -0.299781 -2.409950 0 220 220
0.507824 -0.300428 -2.415155 0 220 220
0.508918 -0.301076 -2.420361 0 220 220
0.510013 -0.301723 -2.425566 0 220 220
0.511107 -0.302371 -2.430771 0 220 220
0.512202 -0.303018 -2.435976 0 220 220
0.513296 -0.303666 -2.441181 0 220 220
0.514391 -0.304313 -2.446386 0 220 220
0.515485 -0.304960 -2.451591 0 220 220
0.516580 -0.305608 -2.456796 0 220 220
0.517674 -0.306255 -2.462001 0 220 220
0.518768 -0.306903 -2.467206 0 220 220
0.519863 -0.307550 -2.472411 0 220 220
0.520957 -0.308198 -2.477616 0 220 220
0.522052 -0.308845 -2.482821 0 220 220
0.523146 -0.309493 -2.488027 0 220 220
0.524241 -0.310140 -2.493232 0 220 220
0.525335 -0.310788 -2.498437 0 220 220
0.526430 -0.311435 -2.503642 0 220 220
0.527524 -0.312083 -2.508847 0 220 220
0.528619 -0.312730 -2.514052 0 220 220
0.529713 -0.313378 -2.519257 0 220 220
0.530807 -0.314025 -2.524462 0 220 220
0.531902 -0.314673 -2.529667 0 220 220
0.532996 -0.315320 -2.534872 0 220 220
0.534091 -0.315968 -2.540077 0 220 220
0.535185 -0.316615 -2.545282 0 220 220
0.536280 -0.317263 -2.550487 0 220 220
0.537374 -0.317910 -2.555693 0 220 220
0.538469 -0.318557 -2.560898 0 220 220
0.539563 -0.319205 -2.566103 0 220 220
0.540657 -0.319852 -2.571308 0 220 220
0.541752 -0.320500 -2.576513 0 220 220
0.542846 -0.321147 -2.581718 0 220 220
0.543941 -0.321795 -2.586923 0 220 220
0.545035 -0.322442 -2.592128 0 220 220
0.546130 -0.323090 -2.597333 0 220 220
