ply
format ascii 1.0
element vertex 76
property float x
property float y
property float z
property uchar red
property uchar green
property uchar blue
element face 72
property list uchar int vertex_indices
end_header
0.000000 -0.019499 0.004448 0 200 200
-0.009851 -0.016505 0.005527 0 200 200
-0.017063 -0.009088 0.005125 0 200 200
-0.019703 0.000764 0.003349 0 200 200
-0.017063 0.010411 0.000677 0 200 200
-0.009851 0.017269 -0.002177 0 200 200
-0.000000 0.019499 -0.004448 0 200 200
0.009851 0.016505 -0.005527 0 200 200
0.017063 0.009088 -0.005125 0 200 200
0.019703 -0.000764 -0.003349 0 200 200
0.017063 -0.010411 -0.000677 0 200 200
0.009851 -0.017269 0.002177 0 200 200
-0.274834 -0.370060 -1.532293 0 200 200
-0.284685 -0.367065 -1.531214 0 200 200
-0.291897 -0.359648 -1.531617 0 200 200
-0.294536 -0.349796 -1.533392 0 200 200
-0.291897 -0.340149 -1.536065 0 200 200
-0.284685 -0.333292 -1.538919 0 200 200
-0.274834 -0.331061 -1.541189 0 200 200
-0.264982 -0.334056 -1.542268 0 200 200
-0.257771 -0.341473 -1.541866 0 200 200
-0.255131 -0.351325 -1.540091 0 200 200
-0.257771 -0.360972 -1.537418 0 200 200
-0.264982 -0.367829 -1.534564 0 200 200
0.000000 0.000000 0.000000 0 200 200
0.000000 0.019499 -0.004448 0 200 200
-0.009851 0.017269 -0.002177 0 200 200
-0.017063 0.010411 0.000677 0 200 200
-0.019703 0.000764 0.003349 0 200 200
-0.017063 -0.009088 0.005125 0 200 200
-0.009851 -0.016505 0.005527 0 200 200
-0.000000 -0.019499 0.004448 0 200 200
0.009851 -0.017269 0.002177 0 200 200
0.017063 -0.010411 -0.000677 0 200 200
0.019703 -0.000764 -0.003349 0 200 200
0.017063 0.009088 -0.005125 0 200 200
0.009851 0.016505 -0.005527 0 200 200
-0.274834 -0.350560 -1.536741 0 200 200
-0.274834 -0.370060 -1.532293 0 200 200
-0.284685 -0.367065 -1.531214 0 200 200
-0.291897 -0.359648 -1.531617 0 200 200
-0.294536 -0.349796 -1.533392 0 200 200
-0.291897 -0.340149 -1.536065 0 200 200
-0.284685 -0.333292 -1.538919 0 200 200
-0.274834 -0.331061 -1.541189 0 200 200
-0.264982 -0.334056 -1.542268 0 200 200
-0.257771 -0.341473 -1.541866 0 200 200
-0.255131 -0.351325 -1.540091 0 200 200
-0.257771 -0.360972 -1.537418 0 200 200
-0.264982 -0.367829 -1.534564 0 200 200
-0.343542 -0.438201 -1.920927 0 200 200
-0.274834 -0.448056 -1.514501 0 200 200
-0.324090 -0.433084 -1.509107 0 200 200
-0.360149 -0.396000 -1.511118 0 200 200
-0.373347 -0.346740 -1.519994 0 200 200
-0.360149 -0.298504 -1.533358 0 200 200
-0.324090 -0.264217 -1.547629 0 200 200
-0.274834 -0.253065 -1.558982 0 200 200
-0.225577 -0.268037 -1.564376 0 200 200
-0.189518 -0.305121 -1.562365 0 200 200
-0.176320 -0.354381 -1.553488 0 200 200
-0.189518 -0.402617 -1.540124 0 200 200
-0.225577 -0.436904 -1.525854 0 200 200
-0.274834 -0.350560 -1.536741 0 200 200
-0.274834 -0.253065 -1.558982 0 200 200
-0.324090 -0.264217 -1.547629 0 200 200
-0.360149 -0.298504 -1.533358 0 200 200
-0.373347 -0.346740 -1.519994 0 200 200
-0.360149 -0.396000 -1.511118 0 200 200
-0.324090 -0.433084 -1.509107 0 200 200
-0.274834 -0.448056 -1.514501 0 200 200
-0.225577 -0.436904 -1.525854 0 200 200
-0.189518 -0.402617 -1.540124 0 200 200
-0.176320 -0.354381 -1.553488 0 200 200
-0.189518 -0.305121 -1.562365 0 200 200
-0.225577 -0.268037 -1.564376 0 200 200
3 0 1 12
3 1 13 12
3 1 2 13
3 2 14 13
3 2 3 14
3 3 15 14
3 3 4 15
3 4 16 15
3 4 5 16
3 5 17 16
3 5 6 17
3 6 18 17
3 6 7 18
3 7 19 18
3 7 8 19
3 8 20 19
3 8 9 20
3 9 21 20
3 9 10 21
3 10 22 21
3 10 11 22
3 11 23 22
3 11 0 23
3 0 12 23
3 24 25 26
3 24 26 27
3 24 27 28
3 24 28 29
3 24 29 30
3 24 30 31
3 24 31 32
3 24 32 33
3 24 33 34
3 24 34 35
3 24 35 36
3 24 36 25
3 37 38 39
3 37 39 40
3 37 40 41
3 37 41 42
3 37 42 43
3 37 43 44
3 37 44 45
3 37 45 46
3 37 46 47
3 37 47 48
3 37 48 49
3 37 49 38
3 50 51 52
3 50 52 53
3 50 53 54
3 50 54 55
3 50 55 56
3 50 56 57
3 50 57 58
3 50 58 59
3 50 59 60
3 50 60 61
3 50 61 62
3 50 62 51
3 63 64 65
3 63 65 66
3 63 66 67
3 63 67 68
3 63 68 69
3 63 69 70
3 63 70 71
3 63 71 72
3 63 72 73
3 63 73 74
3 63 74 75
3 63 75 64
